  0
SECTION
  2
HEADER
  9
$ACADVER
  1
AC1024
  9
$ACADMAINTVER
 70
     6
  9
$DWGCODEPAGE
  3
UNDEFINED
  9
$INSBASE
 10
0.0
 20
0.0
 30
0.0
  9
$EXTMIN
 10
1.000000000000000E+20
 20
1.000000000000000E+20
 30
1.000000000000000E+20
  9
$EXTMAX
 10
-1.000000000000000E+20
 20
-1.000000000000000E+20
 30
-1.000000000000000E+20
  9
$LIMMIN
 10
0.0
 20
0.0
  9
$LIMMAX
 10
12.0
 20
9.0
  9
$ORTHOMODE
 70
     0
  9
$REGENMODE
 70
     1
  9
$FILLMODE
 70
     1
  9
$QTEXTMODE
 70
     0
  9
$MIRRTEXT
 70
     1
  9
$LTSCALE
 40
1.0
  9
$ATTMODE
 70
     1
  9
$TEXTSIZE
 40
0.2
  9
$TRACEWID
 40
0.05
  9
$TEXTSTYLE
  7
Standard
  9
$CLAYER
  8
0
  9
$CELTYPE
  6
ByLayer
  9
$CECOLOR
 62
   256
  9
$CELTSCALE
 40
1.0
  9
$DISPSILH
 70
     0
  9
$DIMSCALE
 40
1.0
  9
$DIMASZ
 40
0.18
  9
$DIMEXO
 40
0.0625
  9
$DIMDLI
 40
0.38
  9
$DIMRND
 40
0.0
  9
$DIMDLE
 40
0.0
  9
$DIMEXE
 40
0.18
  9
$DIMTP
 40
0.0
  9
$DIMTM
 40
0.0
  9
$DIMTXT
 40
0.18
  9
$DIMCEN
 40
0.09
  9
$DIMTSZ
 40
0.0
  9
$DIMTOL
 70
     0
  9
$DIMLIM
 70
     0
  9
$DIMTIH
 70
     1
  9
$DIMTOH
 70
     1
  9
$DIMSE1
 70
     0
  9
$DIMSE2
 70
     0
  9
$DIMTAD
 70
     0
  9
$DIMZIN
 70
     0
  9
$DIMBLK
  1

  9
$DIMASO
 70
     1
  9
$DIMSHO
 70
     1
  9
$DIMPOST
  1

  9
$DIMAPOST
  1

  9
$DIMALT
 70
     0
  9
$DIMALTD
 70
     2
  9
$DIMALTF
 40
25.4
  9
$DIMLFAC
 40
1.0
  9
$DIMTOFL
 70
     0
  9
$DIMTVP
 40
0.0
  9
$DIMTIX
 70
     0
  9
$DIMSOXD
 70
     0
  9
$DIMSAH
 70
     0
  9
$DIMBLK1
  1

  9
$DIMBLK2
  1

  9
$DIMSTYLE
  2
Standard
  9
$DIMCLRD
 70
     0
  9
$DIMCLRE
 70
     0
  9
$DIMCLRT
 70
     0
  9
$DIMTFAC
 40
1.0
  9
$DIMGAP
 40
0.09
  9
$DIMJUST
 70
     0
  9
$DIMSD1
 70
     0
  9
$DIMSD2
 70
     0
  9
$DIMTOLJ
 70
     1
  9
$DIMTZIN
 70
     0
  9
$DIMALTZ
 70
     0
  9
$DIMALTTZ
 70
     0
  9
$DIMUPT
 70
     0
  9
$DIMDEC
 70
     4
  9
$DIMTDEC
 70
     4
  9
$DIMALTU
 70
     2
  9
$DIMALTTD
 70
     2
  9
$DIMTXSTY
  7
Standard
  9
$DIMAUNIT
 70
     0
  9
$DIMADEC
 70
     0
  9
$DIMALTRND
 40
0.0
  9
$DIMAZIN
 70
     0
  9
$DIMDSEP
 70
    46
  9
$DIMATFIT
 70
     3
  9
$DIMFRAC
 70
     0
  9
$DIMLDRBLK
  1

  9
$DIMLUNIT
 70
     2
  9
$DIMLWD
 70
    -2
  9
$DIMLWE
 70
    -2
  9
$DIMTMOVE
 70
     0
  9
$DIMFXL
 40
1.0
  9
$DIMFXLON
 70
     0
  9
$DIMJOGANG
 40
0.7853981633974483
  9
$DIMTFILL
 70
     0
  9
$DIMTFILLCLR
 70
     0
  9
$DIMARCSYM
 70
     0
  9
$DIMLTYPE
  6

  9
$DIMLTEX1
  6

  9
$DIMLTEX2
  6

  9
$DIMTXTDIRECTION
 70
     0
  9
$LUNITS
 70
     2
  9
$LUPREC
 70
     4
  9
$SKETCHINC
 40
0.1
  9
$FILLETRAD
 40
0.5
  9
$AUNITS
 70
     0
  9
$AUPREC
 70
     0
  9
$MENU
  1
.
  9
$ELEVATION
 40
0.0
  9
$PELEVATION
 40
0.0
  9
$THICKNESS
 40
0.0
  9
$LIMCHECK
 70
     0
  9
$CHAMFERA
 40
0.5
  9
$CHAMFERB
 40
0.5
  9
$CHAMFERC
 40
1.0
  9
$CHAMFERD
 40
0.0
  9
$SKPOLY
 70
     0
  9
$TDCREATE
 40
2457231.50412037
  9
$TDUCREATE
 40
2457231.712453704
  9
$TDUPDATE
 40
2457231.50412037
  9
$TDUUPDATE
 40
2457231.712453704
  9
$TDINDWG
 40
0.0000000116
  9
$TDUSRTIMER
 40
0.0000000116
  9
$USRTIMER
 70
     1
  9
$ANGBASE
 50
0.0
  9
$ANGDIR
 70
     0
  9
$PDMODE
 70
     0
  9
$PDSIZE
 40
0.0
  9
$PLINEWID
 40
0.0
  9
$SPLFRAME
 70
     0
  9
$SPLINETYPE
 70
     6
  9
$SPLINESEGS
 70
     8
  9
$HANDSEED
  5
94
  9
$SURFTAB1
 70
     6
  9
$SURFTAB2
 70
     6
  9
$SURFTYPE
 70
     6
  9
$SURFU
 70
     6
  9
$SURFV
 70
     6
  9
$UCSBASE
  2

  9
$UCSNAME
  2

  9
$UCSORG
 10
0.0
 20
0.0
 30
0.0
  9
$UCSXDIR
 10
1.0
 20
0.0
 30
0.0
  9
$UCSYDIR
 10
0.0
 20
1.0
 30
0.0
  9
$UCSORTHOREF
  2

  9
$UCSORTHOVIEW
 70
     0
  9
$UCSORGTOP
 10
0.0
 20
0.0
 30
0.0
  9
$UCSORGBOTTOM
 10
0.0
 20
0.0
 30
0.0
  9
$UCSORGLEFT
 10
0.0
 20
0.0
 30
0.0
  9
$UCSORGRIGHT
 10
0.0
 20
0.0
 30
0.0
  9
$UCSORGFRONT
 10
0.0
 20
0.0
 30
0.0
  9
$UCSORGBACK
 10
0.0
 20
0.0
 30
0.0
  9
$PUCSBASE
  2

  9
$PUCSNAME
  2

  9
$PUCSORG
 10
0.0
 20
0.0
 30
0.0
  9
$PUCSXDIR
 10
1.0
 20
0.0
 30
0.0
  9
$PUCSYDIR
 10
0.0
 20
1.0
 30
0.0
  9
$PUCSORTHOREF
  2

  9
$PUCSORTHOVIEW
 70
     0
  9
$PUCSORGTOP
 10
0.0
 20
0.0
 30
0.0
  9
$PUCSORGBOTTOM
 10
0.0
 20
0.0
 30
0.0
  9
$PUCSORGLEFT
 10
0.0
 20
0.0
 30
0.0
  9
$PUCSORGRIGHT
 10
0.0
 20
0.0
 30
0.0
  9
$PUCSORGFRONT
 10
0.0
 20
0.0
 30
0.0
  9
$PUCSORGBACK
 10
0.0
 20
0.0
 30
0.0
  9
$USERI1
 70
     0
  9
$USERI2
 70
     0
  9
$USERI3
 70
     0
  9
$USERI4
 70
     0
  9
$USERI5
 70
     0
  9
$USERR1
 40
0.0
  9
$USERR2
 40
0.0
  9
$USERR3
 40
0.0
  9
$USERR4
 40
0.0
  9
$USERR5
 40
0.0
  9
$WORLDVIEW
 70
     1
  9
$SHADEDGE
 70
     3
  9
$SHADEDIF
 70
    70
  9
$TILEMODE
 70
     1
  9
$MAXACTVP
 70
    64
  9
$PINSBASE
 10
0.0
 20
0.0
 30
0.0
  9
$PLIMCHECK
 70
     0
  9
$PEXTMIN
 10
1.000000000000000E+20
 20
1.000000000000000E+20
 30
1.000000000000000E+20
  9
$PEXTMAX
 10
-1.000000000000000E+20
 20
-1.000000000000000E+20
 30
-1.000000000000000E+20
  9
$PLIMMIN
 10
0.0
 20
0.0
  9
$PLIMMAX
 10
12.0
 20
9.0
  9
$UNITMODE
 70
     0
  9
$VISRETAIN
 70
     1
  9
$PLINEGEN
 70
     0
  9
$PSLTSCALE
 70
     1
  9
$TREEDEPTH
 70
  3020
  9
$CMLSTYLE
  2
Standard
  9
$CMLJUST
 70
     0
  9
$CMLSCALE
 40
1.0
  9
$PROXYGRAPHICS
 70
     1
  9
$MEASUREMENT
 70
     0
  9
$CELWEIGHT
370
    -1
  9
$ENDCAPS
280
     0
  9
$JOINSTYLE
280
     0
  9
$LWDISPLAY
290
     1
  9
$INSUNITS
 70
     1
  9
$HYPERLINKBASE
  1

  9
$STYLESHEET
  1

  9
$XEDIT
290
     1
  9
$CEPSNTYPE
380
     0
  9
$PSTYLEMODE
290
     1
  9
$FINGERPRINTGUID
  2
{781CE167-4080-CB5C-27B4-56F12808CB96}
  9
$VERSIONGUID
  2
{FAEB1C32-E019-11D5-929B-00C0DF256EC4}
  9
$EXTNAMES
290
     1
  9
$PSVPSCALE
 40
0.0
  9
$OLESTARTUP
290
     0
  9
$SORTENTS
280
   127
  9
$INDEXCTL
280
     0
  9
$HIDETEXT
280
     1
  9
$XCLIPFRAME
280
     2
  9
$HALOGAP
280
     0
  9
$OBSCOLOR
 70
   257
  9
$OBSLTYPE
280
     0
  9
$INTERSECTIONDISPLAY
280
     0
  9
$INTERSECTIONCOLOR
 70
   257
  9
$DIMASSOC
280
     2
  9
$PROJECTNAME
  1

  9
$CAMERADISPLAY
290
     0
  9
$LENSLENGTH
 40
50.0
  9
$CAMERAHEIGHT
 40
0.0
  9
$STEPSPERSEC
 40
2.0
  9
$STEPSIZE
 40
6.0
  9
$3DDWFPREC
 40
2.0
  9
$PSOLWIDTH
 40
0.25
  9
$PSOLHEIGHT
 40
4.0
  9
$LOFTANG1
 40
1.570796326794897
  9
$LOFTANG2
 40
1.570796326794897
  9
$LOFTMAG1
 40
0.0
  9
$LOFTMAG2
 40
0.0
  9
$LOFTPARAM
 70
     7
  9
$LOFTNORMALS
280
     1
  9
$LATITUDE
 40
37.795
  9
$LONGITUDE
 40
-122.394
  9
$NORTHDIRECTION
 40
0.0
  9
$TIMEZONE
 70
 -8000
  9
$LIGHTGLYPHDISPLAY
280
     1
  9
$TILEMODELIGHTSYNCH
280
     1
  9
$CMATERIAL
347
3C
  9
$SOLIDHIST
280
     1
  9
$SHOWHIST
280
     1
  9
$DWFFRAME
280
     2
  9
$DGNFRAME
280
     2
  9
$REALWORLDSCALE
290
     1
  9
$INTERFERECOLOR
 62
   256
  9
$CSHADOW
280
     0
  9
$SHADOWPLANELOCATION
 40
0.0
  0
ENDSEC
  0
SECTION
  2
CLASSES
  0
CLASS
  1
ACDBDICTIONARYWDFLT
  2
AcDbDictionaryWithDefault
  3
ObjectDBX Classes
 90
        0
 91
        4
280
     0
281
     0
  0
CLASS
  1
VISUALSTYLE
  2
AcDbVisualStyle
  3
ObjectDBX Classes
 90
     4095
 91
        4
280
     0
281
     0
  0
CLASS
  1
MATERIAL
  2
AcDbMaterial
  3
ObjectDBX Classes
 90
     1153
 91
        4
280
     0
281
     0
  0
CLASS
  1
SUN
  2
AcDbSun
  3
SCENEOE
 90
     1024
 91
        4
280
     0
281
     0
  0
ENDSEC
  0
SECTION
  2
TABLES
  0
TABLE
  2
VPORT
  5
8
330
0
100
AcDbSymbolTable
 70
     1
  0
VPORT
  5
29
330
8
100
AcDbSymbolTableRecord
100
AcDbViewportTableRecord
  2
*Active
 70
     0
 10
0.0
 20
0.0
 11
1.0
 21
1.0
 12
0.0
 22
0.0
 13
0.0
 23
0.0
 14
0.5
 24
0.5
 15
0.5
 25
0.5
 16
0.0
 26
0.0
 36
1.0
 17
15.42076229521857
 27
-7.871664750095836
 37
0.0
 40
15.74332950019167
 41
1.089888603891188
 42
50.0
 43
0.0
 44
0.0
 50
0.0
 51
0.0
 71
     0
 72
   100
 73
     1
 74
     3
 75
     0
 76
     0
 77
     0
 78
     0
281
     0
 65
     1
110
0.0
120
0.0
130
0.0
111
1.0
121
0.0
131
0.0
112
0.0
122
1.0
132
0.0
 79
     0
146
0.0
 60
     3
 61
     5
292
     1
282
     1
141
0.0
142
0.0
 63
   250
361
3F
  0
ENDTAB
  0
TABLE
  2
LTYPE
  5
5
330
0
100
AcDbSymbolTable
 70
     1
  0
LTYPE
  5
14
330
5
100
AcDbSymbolTableRecord
100
AcDbLinetypeTableRecord
  2
ByBlock
 70
     0
  3

 72
    65
 73
     0
 40
0.0
  0
LTYPE
  5
15
330
5
100
AcDbSymbolTableRecord
100
AcDbLinetypeTableRecord
  2
ByLayer
 70
     0
  3

 72
    65
 73
     0
 40
0.0
  0
LTYPE
  5
16
330
5
100
AcDbSymbolTableRecord
100
AcDbLinetypeTableRecord
  2
Continuous
 70
     0
  3
Solid line
 72
    65
 73
     0
 40
0.0
  0
ENDTAB
  0
TABLE
  2
LAYER
  5
2
330
0
100
AcDbSymbolTable
 70
     2
  0
LAYER
  5
10
330
2
100
AcDbSymbolTableRecord
100
AcDbLayerTableRecord
  2
0
 70
     0
 62
     7
  6
Continuous
370
    -3
390
F
347
3E
  0
LAYER
  5
40
330
2
100
AcDbSymbolTableRecord
100
AcDbLayerTableRecord
  2
BOTTOM
 70
     0
 62
     7
  6
Continuous
370
    -3
390
F
347
3E
  0
ENDTAB
  0
TABLE
  2
STYLE
  5
3
330
0
100
AcDbSymbolTable
 70
     1
  0
STYLE
  5
11
330
3
100
AcDbSymbolTableRecord
100
AcDbTextStyleTableRecord
  2
Standard
 70
     0
 40
0.0
 41
1.0
 50
0.0
 71
     0
 42
0.2
  3
txt
  4

  0
ENDTAB
  0
TABLE
  2
VIEW
  5
6
330
0
100
AcDbSymbolTable
 70
     0
  0
ENDTAB
  0
TABLE
  2
UCS
  5
7
330
0
100
AcDbSymbolTable
 70
     0
  0
ENDTAB
  0
TABLE
  2
APPID
  5
9
330
0
100
AcDbSymbolTable
 70
     1
  0
APPID
  5
12
330
9
100
AcDbSymbolTableRecord
100
AcDbRegAppTableRecord
  2
ACAD
 70
     0
  0
ENDTAB
  0
TABLE
  2
DIMSTYLE
  5
A
330
0
100
AcDbSymbolTable
 70
     1
100
AcDbDimStyleTable
  0
DIMSTYLE
105
27
330
A
100
AcDbSymbolTableRecord
100
AcDbDimStyleTableRecord
  2
Standard
 70
     0
178
     0
340
11
  0
ENDTAB
  0
TABLE
  2
BLOCK_RECORD
  5
1
330
0
100
AcDbSymbolTable
 70
     3
  0
BLOCK_RECORD
  5
1F
330
1
100
AcDbSymbolTableRecord
100
AcDbBlockTableRecord
  2
*Model_Space
340
22
 70
     0
280
     1
281
     0
  0
BLOCK_RECORD
  5
1B
330
1
100
AcDbSymbolTableRecord
100
AcDbBlockTableRecord
  2
*Paper_Space
340
1E
 70
     0
280
     1
281
     0
  0
BLOCK_RECORD
  5
23
330
1
100
AcDbSymbolTableRecord
100
AcDbBlockTableRecord
  2
*Paper_Space0
340
26
 70
     0
280
     1
281
     0
  0
BLOCK_RECORD
  5
43
330
1
100
AcDbSymbolTableRecord
100
AcDbBlockTableRecord
  2
block 2
340
0
102
{BLKREFS
331
44
102
}
 70
     0
280
     1
281
     0
  0
BLOCK_RECORD
  5
47
330
1
100
AcDbSymbolTableRecord
100
AcDbBlockTableRecord
  2
block 3
340
0
102
{BLKREFS
331
48
102
}
 70
     0
280
     1
281
     0
  0
ENDTAB
  0
ENDSEC
  0
SECTION
  2
BLOCKS
  0
BLOCK
  5
20
330
1F
100
AcDbEntity
  8
0
100
AcDbBlockBegin
  2
*Model_Space
 70
     0
 10
0.0
 20
0.0
 30
0.0
  3
*Model_Space
  1

  0
ENDBLK
  5
21
330
1F
100
AcDbEntity
  8
0
100
AcDbBlockEnd
  0
BLOCK
  5
1C
330
1B
100
AcDbEntity
 67
     1
  8
0
100
AcDbBlockBegin
  2
*Paper_Space
 70
     0
 10
0.0
 20
0.0
 30
0.0
  3
*Paper_Space
  1

  0
ENDBLK
  5
1D
330
1B
100
AcDbEntity
 67
     1
  8
0
100
AcDbBlockEnd
  0
BLOCK
  5
24
330
23
100
AcDbEntity
  8
0
100
AcDbBlockBegin
  2
*Paper_Space0
 70
     0
 10
0.0
 20
0.0
 30
0.0
  3
*Paper_Space0
  1

  0
ENDBLK
  5
25
330
23
100
AcDbEntity
  8
0
100
AcDbBlockEnd
  0
BLOCK
  5
45
330
43
100
AcDbEntity
  8
0
100
AcDbBlockBegin
  2
block 2
 70
     0
 10
0.0
 20
0.0
 30
0.0
  3
block 2
  1

  0
INSERT
  5
48
330
43
100
AcDbEntity
  8
BOTTOM
100
AcDbBlockReference
  2
block 3
 10
0.0
 20
0.0
 30
0.0
  0
ENDBLK
  5
46
330
43
100
AcDbEntity
  8
0
100
AcDbBlockEnd
  0
BLOCK
  5
49
330
47
100
AcDbEntity
  8
0
100
AcDbBlockBegin
  2
block 3
 70
     0
 10
0.0
 20
0.0
 30
0.0
  3
block 3
  1

  0
SPLINE
  5
4B
330
47
100
AcDbEntity
  8
BOTTOM
 62
     1
420
 16711680
370
    35
100
AcDbSpline
210
0.0
220
0.0
230
1.0
 70
    11
 71
     3
 72
    35
 73
    31
 74
     0
 42
0.0000000001
 43
0.0000000001
 12
1.0
 22
0.0
 32
0.0
 13
1.0
 23
0.0
 33
0.0
 40
0.0
 40
0.0
 40
0.0
 40
0.0
 40
1.0
 40
1.0
 40
1.0
 40
2.0
 40
2.0
 40
2.0
 40
3.0
 40
3.0
 40
3.0
 40
4.0
 40
4.0
 40
4.0
 40
5.0
 40
5.0
 40
5.0
 40
6.0
 40
6.0
 40
6.0
 40
7.0
 40
7.0
 40
7.0
 40
8.0
 40
8.0
 40
8.0
 40
9.0
 40
9.0
 40
9.0
 40
10.0
 40
10.0
 40
10.0
 40
10.0
 10
15.31291819198481
 20
-6.621953938211542
 30
0.0
 10
15.31114139171978
 20
-6.613503960112489
 30
0.0
 10
15.30981218317164
 20
-6.60017116962874
 30
0.0
 10
15.30981218473946
 20
-6.586607801893479
 30
0.0
 10
15.30981218697515
 20
-6.567266439503024
 30
0.0
 10
15.31314877700584
 20
-6.554815267922044
 30
0.0
 10
15.32070357420412
 20
-6.545483670920198
 30
0.0
 10
15.32648156998188
 20
-6.537698297840152
 30
0.0
 10
15.33537914009836
 20
-6.533032499339242
 30
0.0
 10
15.34715214374619
 20
-6.533032499339242
 30
0.0
 10
15.36161069430907
 20
-6.533032499339242
 30
0.0
 10
15.37427887915661
 20
-6.542594673592576
 30
0.0
 10
15.38005687220953
 20
-6.558382433636425
 30
0.0
 10
15.38005687220953
 20
-6.558382433636425
 30
0.0
 10
15.38050446336203
 20
-6.558382433636425
 30
0.0
 10
15.38050446336203
 20
-6.558382433636425
 30
0.0
 10
15.38405806749024
 20
-6.54415446088213
 30
0.0
 10
15.3958446364347
 20
-6.527471518567785
 30
0.0
 10
15.41807499700935
 20
-6.527471518567785
 30
0.0
 10
15.43097376022256
 20
-6.527471518567785
 30
0.0
 10
15.44075294814542
 20
-6.532584908203969
 30
0.0
 10
15.44809072949809
 20
-6.540153267400253
 30
0.0
 10
15.45765290291269
 20
-6.550597060556381
 30
0.0
 10
15.46208812237953
 20
-6.567497016754512
 30
0.0
 10
15.46208811955277
 20
-6.591951768781175
 30
0.0
 10
15.46208811801161
 20
-6.605284559264923
 30
0.0
 10
15.46120649789274
 20
-6.615511338537317
 30
0.0
 10
15.46031131484301
 20
-6.621953938211542
 30
0.0
 10
15.46031131484301
 20
-6.621953938211542
 30
0.0
 10
15.31291819198481
 20
-6.621953938211542
 30
0.0
 10
15.31291819198481
 20
-6.621953938211542
 30
0.0
  0
SPLINE
  5
4C
330
47
100
AcDbEntity
  8
BOTTOM
 62
     1
420
 16711680
370
    35
100
AcDbSpline
210
0.0
220
0.0
230
1.0
 70
    11
 71
     3
 72
    20
 73
    16
 74
     0
 42
0.0000000001
 43
0.0000000001
 12
1.0
 22
0.0
 32
0.0
 13
1.0
 23
0.0
 33
0.0
 40
0.0
 40
0.0
 40
0.0
 40
0.0
 40
1.0
 40
1.0
 40
1.0
 40
2.0
 40
2.0
 40
2.0
 40
3.0
 40
3.0
 40
3.0
 40
4.0
 40
4.0
 40
4.0
 40
5.0
 40
5.0
 40
5.0
 40
5.0
 10
15.44608334377621
 20
-6.602612575821088
 30
0.0
 10
15.44674794925668
 20
-6.598841959590673
 30
0.0
 10
15.44697852715987
 20
-6.593280978819216
 30
0.0
 10
15.44697852795631
 20
-6.586390788009718
 30
0.0
 10
15.44697853026883
 20
-6.566384820600231
 30
0.0
 10
15.43964075017511
 20
-6.547925077112545
 30
0.0
 10
15.41785798075297
 20
-6.547925077112545
 30
0.0
 10
15.39740442142011
 20
-6.547925077112545
 30
0.0
 10
15.38895444096516
 20
-6.565489638329685
 30
0.0
 10
15.3889544385241
 20
-6.586607801893479
 30
0.0
 10
15.3889544385241
 20
-6.586607801893479
 30
0.0
 10
15.38895443667409
 20
-6.602612575821088
 30
0.0
 10
15.38895443667409
 20
-6.602612575821088
 30
0.0
 10
15.38895443667409
 20
-6.602612575821088
 30
0.0
 10
15.44608334377621
 20
-6.602612575821088
 30
0.0
 10
15.44608334377621
 20
-6.602612575821088
 30
0.0
  0
SPLINE
  5
4D
330
47
100
AcDbEntity
  8
BOTTOM
 62
     1
420
 16711680
370
    35
100
AcDbSpline
210
0.0
220
0.0
230
1.0
 70
    11
 71
     3
 72
    20
 73
    16
 74
     0
 42
0.0000000001
 43
0.0000000001
 12
1.0
 22
0.0
 32
0.0
 13
1.0
 23
0.0
 33
0.0
 40
0.0
 40
0.0
 40
0.0
 40
0.0
 40
1.0
 40
1.0
 40
1.0
 40
2.0
 40
2.0
 40
2.0
 40
3.0
 40
3.0
 40
3.0
 40
4.0
 40
4.0
 40
4.0
 40
5.0
 40
5.0
 40
5.0
 40
5.0
 10
15.37427887221907
 20
-6.602612575821088
 30
0.0
 10
15.37427887221907
 20
-6.602612575821088
 30
0.0
 10
15.37427887424938
 20
-6.585048014603924
 30
0.0
 10
15.37427887424938
 20
-6.585048014603924
 30
0.0
 10
15.37427887661205
 20
-6.564608019426891
 30
0.0
 10
15.36360450718219
 20
-6.552590875613482
 30
0.0
 10
15.34915951998758
 20
-6.552590875613482
 30
0.0
 10
15.33159495809365
 20
-6.552590875613482
 30
0.0
 10
15.32470476547592
 20
-6.565937229464957
 30
0.0
 10
15.32470476321514
 20
-6.585495605739197
 30
0.0
 10
15.32470476218668
 20
-6.594393174973523
 30
0.0
 10
15.32536936664024
 20
-6.599506564609706
 30
0.0
 10
15.32603397132587
 20
-6.602612575821088
 30
0.0
 10
15.32603397132587
 20
-6.602612575821088
 30
0.0
 10
15.37427887221907
 20
-6.602612575821088
 30
0.0
 10
15.37427887221907
 20
-6.602612575821088
 30
0.0
  0
POLYLINE
  5
4E
330
47
100
AcDbEntity
  8
BOTTOM
 62
     1
420
 16711680
370
    35
100
AcDb2dPolyline
 66
     1
 10
0.0
 20
0.0
 30
0.0
  0
VERTEX
  5
4F
330
4E
100
AcDbEntity
  8
BOTTOM
 62
     1
420
 16711680
370
    35
100
AcDbVertex
100
AcDb2dVertex
 10
15.41362621802164
 20
-6.477287057947351
 30
0.0
  0
VERTEX
  5
50
330
4E
100
AcDbEntity
  8
BOTTOM
 62
     1
420
 16711680
370
    35
100
AcDbVertex
100
AcDb2dVertex
 10
15.46075892091944
 20
-6.492844240739688
 30
0.0
  0
VERTEX
  5
51
330
4E
100
AcDbEntity
  8
BOTTOM
 62
     1
420
 16711680
370
    35
100
AcDbVertex
100
AcDb2dVertex
 10
15.46075891860695
 20
-6.512850208149175
 30
0.0
  0
VERTEX
  5
52
330
4E
100
AcDbEntity
  8
BOTTOM
 62
     1
420
 16711680
370
    35
100
AcDbVertex
100
AcDb2dVertex
 10
15.31092439534629
 20
-6.461946889038775
 30
0.0
  0
VERTEX
  5
53
330
4E
100
AcDbEntity
  8
BOTTOM
 62
     1
420
 16711680
370
    35
100
AcDbVertex
100
AcDb2dVertex
 10
15.31092439804449
 20
-6.438604333166394
 30
0.0
  0
VERTEX
  5
54
330
4E
100
AcDbEntity
  8
BOTTOM
 62
     1
420
 16711680
370
    35
100
AcDbVertex
100
AcDb2dVertex
 10
15.46075893309972
 20
-6.387470436804506
 30
0.0
  0
VERTEX
  5
55
330
4E
100
AcDbEntity
  8
BOTTOM
 62
     1
420
 16711680
370
    35
100
AcDbVertex
100
AcDb2dVertex
 10
15.4607589307104
 20
-6.408141009233026
 30
0.0
  0
VERTEX
  5
56
330
4E
100
AcDbEntity
  8
BOTTOM
 62
     1
420
 16711680
370
    35
100
AcDbVertex
100
AcDb2dVertex
 10
15.41362622416429
 20
-6.424145783160611
 30
0.0
  0
VERTEX
  5
57
330
4E
100
AcDbEntity
  8
BOTTOM
 62
     1
420
 16711680
370
    35
100
AcDbVertex
100
AcDb2dVertex
 10
15.41362621802164
 20
-6.477287057947351
 30
0.0
  0
SEQEND
  5
58
330
4E
100
AcDbEntity
  8
BOTTOM
 62
     1
420
 16711680
370
    35
  0
SPLINE
  5
59
330
47
100
AcDbEntity
  8
BOTTOM
 62
     1
420
 16711680
370
    35
100
AcDbSpline
210
0.0
220
0.0
230
1.0
 70
    11
 71
     3
 72
    23
 73
    19
 74
     0
 42
0.0000000001
 43
0.0000000001
 12
1.0
 22
0.0
 32
0.0
 13
1.0
 23
0.0
 33
0.0
 40
0.0
 40
0.0
 40
0.0
 40
0.0
 40
1.0
 40
1.0
 40
1.0
 40
2.0
 40
2.0
 40
2.0
 40
3.0
 40
3.0
 40
3.0
 40
4.0
 40
4.0
 40
4.0
 40
5.0
 40
5.0
 40
5.0
 40
6.0
 40
6.0
 40
6.0
 40
6.0
 10
15.39851663146255
 20
-6.428146976642513
 30
0.0
 10
15.39851663146255
 20
-6.428146976642513
 30
0.0
 10
15.35538511870618
 20
-6.442822540532056
 30
0.0
 10
15.35538511870618
 20
-6.442822540532056
 30
0.0
 10
15.34560592980658
 20
-6.446159128994926
 30
0.0
 10
15.33670835997231
 20
-6.448383521303513
 30
0.0
 10
15.3280413673984
 20
-6.450607913612101
 30
0.0
 10
15.3280413673984
 20
-6.450607913612101
 30
0.0
 10
15.32804136734666
 20
-6.451055504747374
 30
0.0
 10
15.32804136734666
 20
-6.451055504747374
 30
0.0
 10
15.33692537329845
 20
-6.453279897055936
 30
0.0
 10
15.34603995648553
 20
-6.455721303248285
 30
0.0
 10
15.35515453962087
 20
-6.458610300575906
 30
0.0
 10
15.35515453962087
 20
-6.458610300575906
 30
0.0
 10
15.3985166262449
 20
-6.473285864465449
 30
0.0
 10
15.3985166262449
 20
-6.473285864465449
 30
0.0
 10
15.3985166262449
 20
-6.473285864465449
 30
0.0
 10
15.39851663146255
 20
-6.428146976642513
 30
0.0
 10
15.39851663146255
 20
-6.428146976642513
 30
0.0
  0
POLYLINE
  5
5A
330
47
100
AcDbEntity
  8
BOTTOM
 62
     1
420
 16711680
370
    35
100
AcDb2dPolyline
 66
     1
 10
0.0
 20
0.0
 30
0.0
  0
VERTEX
  5
5B
330
5A
100
AcDbEntity
  8
BOTTOM
 62
     1
420
 16711680
370
    35
100
AcDbVertex
100
AcDb2dVertex
 10
15.32737677350087
 20
-6.35417236901445
 30
0.0
  0
VERTEX
  5
5C
330
5A
100
AcDbEntity
  8
BOTTOM
 62
     1
420
 16711680
370
    35
100
AcDbVertex
100
AcDb2dVertex
 10
15.32737676823303
 20
-6.399745284604907
 30
0.0
  0
VERTEX
  5
5D
330
5A
100
AcDbEntity
  8
BOTTOM
 62
     1
420
 16711680
370
    35
100
AcDbVertex
100
AcDb2dVertex
 10
15.31092440253625
 20
-6.399745284604907
 30
0.0
  0
VERTEX
  5
5E
330
5A
100
AcDbEntity
  8
BOTTOM
 62
     1
420
 16711680
370
    35
100
AcDbVertex
100
AcDb2dVertex
 10
15.31092441535932
 20
-6.288810499898267
 30
0.0
  0
VERTEX
  5
5F
330
5A
100
AcDbEntity
  8
BOTTOM
 62
     1
420
 16711680
370
    35
100
AcDbVertex
100
AcDb2dVertex
 10
15.32737678105612
 20
-6.288810499898267
 30
0.0
  0
VERTEX
  5
60
330
5A
100
AcDbEntity
  8
BOTTOM
 62
     1
420
 16711680
370
    35
100
AcDbVertex
100
AcDb2dVertex
 10
15.32737677576162
 20
-6.334613992740211
 30
0.0
  0
VERTEX
  5
61
330
5A
100
AcDbEntity
  8
BOTTOM
 62
     1
420
 16711680
370
    35
100
AcDbVertex
100
AcDb2dVertex
 10
15.46075893920945
 20
-6.334613992740211
 30
0.0
  0
VERTEX
  5
62
330
5A
100
AcDbEntity
  8
BOTTOM
 62
     1
420
 16711680
370
    35
100
AcDbVertex
100
AcDb2dVertex
 10
15.46075893694868
 20
-6.35417236901445
 30
0.0
  0
VERTEX
  5
63
330
5A
100
AcDbEntity
  8
BOTTOM
 62
     1
420
 16711680
370
    35
100
AcDbVertex
100
AcDb2dVertex
 10
15.32737677350087
 20
-6.35417236901445
 30
0.0
  0
SEQEND
  5
64
330
5A
100
AcDbEntity
  8
BOTTOM
 62
     1
420
 16711680
370
    35
  0
POLYLINE
  5
65
330
47
100
AcDbEntity
  8
BOTTOM
 62
     1
420
 16711680
370
    35
100
AcDb2dPolyline
 66
     1
 10
0.0
 20
0.0
 30
0.0
  0
VERTEX
  5
66
330
65
100
AcDbEntity
  8
BOTTOM
 62
     1
420
 16711680
370
    35
100
AcDbVertex
100
AcDb2dVertex
 10
15.32737678724425
 20
-6.235275887447237
 30
0.0
  0
VERTEX
  5
67
330
65
100
AcDbEntity
  8
BOTTOM
 62
     1
420
 16711680
370
    35
100
AcDbVertex
100
AcDb2dVertex
 10
15.3273767819764
 20
-6.280848803037669
 30
0.0
  0
VERTEX
  5
68
330
65
100
AcDbEntity
  8
BOTTOM
 62
     1
420
 16711680
370
    35
100
AcDbVertex
100
AcDb2dVertex
 10
15.31092441627963
 20
-6.280848803037669
 30
0.0
  0
VERTEX
  5
69
330
65
100
AcDbEntity
  8
BOTTOM
 62
     1
420
 16711680
370
    35
100
AcDbVertex
100
AcDb2dVertex
 10
15.31092442910269
 20
-6.169914018331029
 30
0.0
  0
VERTEX
  5
6A
330
65
100
AcDbEntity
  8
BOTTOM
 62
     1
420
 16711680
370
    35
100
AcDbVertex
100
AcDb2dVertex
 10
15.32737679479949
 20
-6.169914018331029
 30
0.0
  0
VERTEX
  5
6B
330
65
100
AcDbEntity
  8
BOTTOM
 62
     1
420
 16711680
370
    35
100
AcDbVertex
100
AcDb2dVertex
 10
15.327376789505
 20
-6.215717511172998
 30
0.0
  0
VERTEX
  5
6C
330
65
100
AcDbEntity
  8
BOTTOM
 62
     1
420
 16711680
370
    35
100
AcDbVertex
100
AcDb2dVertex
 10
15.46075895295283
 20
-6.215717511172998
 30
0.0
  0
VERTEX
  5
6D
330
65
100
AcDbEntity
  8
BOTTOM
 62
     1
420
 16711680
370
    35
100
AcDbVertex
100
AcDb2dVertex
 10
15.46075895069205
 20
-6.235275887447237
 30
0.0
  0
VERTEX
  5
6E
330
65
100
AcDbEntity
  8
BOTTOM
 62
     1
420
 16711680
370
    35
100
AcDbVertex
100
AcDb2dVertex
 10
15.32737678724425
 20
-6.235275887447237
 30
0.0
  0
SEQEND
  5
6F
330
65
100
AcDbEntity
  8
BOTTOM
 62
     1
420
 16711680
370
    35
  0
POLYLINE
  5
70
330
47
100
AcDbEntity
  8
BOTTOM
 62
     1
420
 16711680
370
    35
100
AcDb2dPolyline
 66
     1
 10
0.0
 20
0.0
 30
0.0
  0
VERTEX
  5
71
330
70
100
AcDbEntity
  8
BOTTOM
 62
     1
420
 16711680
370
    35
100
AcDbVertex
100
AcDb2dVertex
 10
15.39051428492823
 20
-6.075716429409718
 30
0.0
  0
VERTEX
  5
72
330
70
100
AcDbEntity
  8
BOTTOM
 62
     1
420
 16711680
370
    35
100
AcDbVertex
100
AcDb2dVertex
 10
15.39051427819608
 20
-6.133957530464891
 30
0.0
  0
VERTEX
  5
73
330
70
100
AcDbEntity
  8
BOTTOM
 62
     1
420
 16711680
370
    35
100
AcDbVertex
100
AcDb2dVertex
 10
15.44452361059888
 20
-6.133957530464891
 30
0.0
  0
VERTEX
  5
74
330
70
100
AcDbEntity
  8
BOTTOM
 62
     1
420
 16711680
370
    35
100
AcDbVertex
100
AcDb2dVertex
 10
15.44452361810242
 20
-6.069043252483955
 30
0.0
  0
VERTEX
  5
75
330
70
100
AcDbEntity
  8
BOTTOM
 62
     1
420
 16711680
370
    35
100
AcDbVertex
100
AcDb2dVertex
 10
15.46075896990707
 20
-6.069043252483955
 30
0.0
  0
VERTEX
  5
76
330
70
100
AcDbEntity
  8
BOTTOM
 62
     1
420
 16711680
370
    35
100
AcDbVertex
100
AcDb2dVertex
 10
15.46075896016787
 20
-6.153298892855345
 30
0.0
  0
VERTEX
  5
77
330
70
100
AcDbEntity
  8
BOTTOM
 62
     1
420
 16711680
370
    35
100
AcDbVertex
100
AcDb2dVertex
 10
15.31092443102327
 20
-6.153298892855345
 30
0.0
  0
VERTEX
  5
78
330
70
100
AcDbEntity
  8
BOTTOM
 62
     1
420
 16711680
370
    35
100
AcDbVertex
100
AcDb2dVertex
 10
15.31092444037679
 20
-6.072379840946824
 30
0.0
  0
VERTEX
  5
79
330
70
100
AcDbEntity
  8
BOTTOM
 62
     1
420
 16711680
370
    35
100
AcDbVertex
100
AcDb2dVertex
 10
15.32714622881319
 20
-6.072379840946824
 30
0.0
  0
VERTEX
  5
7A
330
70
100
AcDbEntity
  8
BOTTOM
 62
     1
420
 16711680
370
    35
100
AcDbVertex
100
AcDb2dVertex
 10
15.32714622169535
 20
-6.133957530464891
 30
0.0
  0
VERTEX
  5
7B
330
70
100
AcDbEntity
  8
BOTTOM
 62
     1
420
 16711680
370
    35
100
AcDbVertex
100
AcDb2dVertex
 10
15.37449594028355
 20
-6.133957530464891
 30
0.0
  0
VERTEX
  5
7C
330
70
100
AcDbEntity
  8
BOTTOM
 62
     1
420
 16711680
370
    35
100
AcDbVertex
100
AcDb2dVertex
 10
15.3744959470157
 20
-6.075716429409718
 30
0.0
  0
VERTEX
  5
7D
330
70
100
AcDbEntity
  8
BOTTOM
 62
     1
420
 16711680
370
    35
100
AcDbVertex
100
AcDb2dVertex
 10
15.39051428492823
 20
-6.075716429409718
 30
0.0
  0
SEQEND
  5
7E
330
70
100
AcDbEntity
  8
BOTTOM
 62
     1
420
 16711680
370
    35
  0
SPLINE
  5
7F
330
47
100
AcDbEntity
  8
BOTTOM
 62
     1
420
 16711680
370
    35
100
AcDbSpline
210
0.0
220
0.0
230
1.0
 70
    11
 71
     3
 72
    47
 73
    43
 74
     0
 42
0.0000000001
 43
0.0000000001
 12
1.0
 22
0.0
 32
0.0
 13
1.0
 23
0.0
 33
0.0
 40
0.0
 40
0.0
 40
0.0
 40
0.0
 40
1.0
 40
1.0
 40
1.0
 40
2.0
 40
2.0
 40
2.0
 40
3.0
 40
3.0
 40
3.0
 40
4.0
 40
4.0
 40
4.0
 40
5.0
 40
5.0
 40
5.0
 40
6.0
 40
6.0
 40
6.0
 40
7.0
 40
7.0
 40
7.0
 40
8.0
 40
8.0
 40
8.0
 40
9.0
 40
9.0
 40
9.0
 40
10.0
 40
10.0
 40
10.0
 40
11.0
 40
11.0
 40
11.0
 40
12.0
 40
12.0
 40
12.0
 40
13.0
 40
13.0
 40
13.0
 40
14.0
 40
14.0
 40
14.0
 40
14.0
 10
15.31291825879523
 20
-6.043964585541491
 30
0.0
 10
15.31092444479173
 20
-6.034185397404372
 30
0.0
 10
15.30981225021254
 20
-6.020188001901588
 30
0.0
 10
15.30981225175527
 20
-6.006841648050087
 30
0.0
 10
15.30981225414462
 20
-5.986171075621566
 30
0.0
 10
15.31358287206305
 20
-5.972824450399608
 30
0.0
 10
15.32203285156632
 20
-5.963493124768219
 30
0.0
 10
15.32870602962245
 20
-5.955938328939687
 30
0.0
 10
15.33893280977802
 20
-5.951706558206297
 30
0.0
 10
15.35048879953372
 20
-5.951706558206297
 30
0.0
 10
15.37027775382194
 20
-5.951706558206297
 30
0.0
 10
15.38339352948805
 20
-5.964157729787252
 30
0.0
 10
15.38872393138846
 20
-5.979945489831076
 30
0.0
 10
15.38872393138846
 20
-5.979945489831076
 30
0.0
 10
15.38940209980137
 20
-5.979945489831076
 30
0.0
 10
15.38940209980137
 20
-5.979945489831076
 30
0.0
 10
15.39340329477477
 20
-5.968375937152914
 30
0.0
 10
15.40406410302189
 20
-5.961485746343416
 30
0.0
 10
15.41963485019268
 20
-5.957932143996762
 30
0.0
 10
15.4405224378742
 20
-5.953049331612091
 30
0.0
 10
15.45498098884943
 20
-5.949482165897709
 30
0.0
 10
15.4607589840863
 20
-5.946376154686328
 30
0.0
 10
15.4607589840863
 20
-5.946376154686328
 30
0.0
 10
15.46075898177378
 20
-5.96638212209584
 30
0.0
 10
15.46075898177378
 20
-5.96638212209584
 30
0.0
 10
15.4565407739634
 20
-5.968823528288188
 30
0.0
 10
15.44364201036448
 20
-5.972160116751057
 30
0.0
 10
15.42496525178424
 20
-5.976391887484447
 30
0.0
 10
15.4042946780466
 20
-5.98082710873387
 30
0.0
 10
15.39650930374157
 20
-5.988829495697675
 30
0.0
 10
15.39584469666662
 20
-6.006394056914839
 30
0.0
 10
15.39584469666662
 20
-6.006394056914839
 30
0.0
 10
15.3958446945595
 20
-6.024623223151012
 30
0.0
 10
15.3958446945595
 20
-6.024623223151012
 30
0.0
 10
15.3958446945595
 20
-6.024623223151012
 30
0.0
 10
15.46075897504162
 20
-6.024623223151012
 30
0.0
 10
15.46075897504162
 20
-6.024623223151012
 30
0.0
 10
15.46075897504162
 20
-6.024623223151012
 30
0.0
 10
15.46075897280593
 20
-6.043964585541491
 30
0.0
 10
15.46075897280593
 20
-6.043964585541491
 30
0.0
 10
15.46075897280593
 20
-6.043964585541491
 30
0.0
 10
15.31291825879523
 20
-6.043964585541491
 30
0.0
 10
15.31291825879523
 20
-6.043964585541491
 30
0.0
  0
SPLINE
  5
80
330
47
100
AcDbEntity
  8
BOTTOM
 62
     1
420
 16711680
370
    35
100
AcDbSpline
210
0.0
220
0.0
230
1.0
 70
    11
 71
     3
 72
    20
 73
    16
 74
     0
 42
0.0000000001
 43
0.0000000001
 12
1.0
 22
0.0
 32
0.0
 13
1.0
 23
0.0
 33
0.0
 40
0.0
 40
0.0
 40
0.0
 40
0.0
 40
1.0
 40
1.0
 40
1.0
 40
2.0
 40
2.0
 40
2.0
 40
3.0
 40
3.0
 40
3.0
 40
4.0
 40
4.0
 40
4.0
 40
5.0
 40
5.0
 40
5.0
 40
5.0
 10
15.3811691301045
 20
-6.024623223151012
 30
0.0
 10
15.3811691301045
 20
-6.024623223151012
 30
0.0
 10
15.38116913239034
 20
-6.004847832993012
 30
0.0
 10
15.38116913239034
 20
-6.004847832993012
 30
0.0
 10
15.38116913478125
 20
-5.984163697196739
 30
0.0
 10
15.36983016043374
 20
-5.97104792059675
 30
0.0
 10
15.35271318969232
 20
-5.97104792059675
 30
0.0
 10
15.33337182655661
 20
-5.97104792059675
 30
0.0
 10
15.32492184651242
 20
-5.985058879467285
 30
0.0
 10
15.32470483025605
 20
-6.005512438012046
 30
0.0
 10
15.32470482917739
 20
-6.014844035013892
 30
0.0
 10
15.32558644734281
 20
-6.021517211939631
 30
0.0
 10
15.32648162928879
 20
-6.024623223151012
 30
0.0
 10
15.32648162928879
 20
-6.024623223151012
 30
0.0
 10
15.3811691301045
 20
-6.024623223151012
 30
0.0
 10
15.3811691301045
 20
-6.024623223151012
 30
0.0
  0
SPLINE
  5
81
330
47
100
AcDbEntity
  8
BOTTOM
 62
     1
420
 16711680
370
    35
100
AcDbSpline
210
0.0
220
0.0
230
1.0
 70
    11
 71
     3
 72
    41
 73
    37
 74
     0
 42
0.0000000001
 43
0.0000000001
 12
1.0
 22
0.0
 32
0.0
 13
1.0
 23
0.0
 33
0.0
 40
0.0
 40
0.0
 40
0.0
 40
0.0
 40
1.0
 40
1.0
 40
1.0
 40
2.0
 40
2.0
 40
2.0
 40
3.0
 40
3.0
 40
3.0
 40
4.0
 40
4.0
 40
4.0
 40
5.0
 40
5.0
 40
5.0
 40
6.0
 40
6.0
 40
6.0
 40
7.0
 40
7.0
 40
7.0
 40
8.0
 40
8.0
 40
8.0
 40
9.0
 40
9.0
 40
9.0
 40
10.0
 40
10.0
 40
10.0
 40
11.0
 40
11.0
 40
11.0
 40
12.0
 40
12.0
 40
12.0
 40
12.0
 10
15.46075899019759
 20
-5.893506147254331
 30
0.0
 10
15.46075899019759
 20
-5.893506147254331
 30
0.0
 10
15.39717391980475
 20
-5.893506147254331
 30
0.0
 10
15.39717391980475
 20
-5.893506147254331
 30
0.0
 10
15.39717391980475
 20
-5.893506147254331
 30
0.0
 10
15.31092445557978
 20
-5.940855864018077
 30
0.0
 10
15.31092445557978
 20
-5.940855864018077
 30
0.0
 10
15.31092445557978
 20
-5.940855864018077
 30
0.0
 10
15.31092445812434
 20
-5.918842518183762
 30
0.0
 10
15.31092445812434
 20
-5.918842518183762
 30
0.0
 10
15.31092445812434
 20
-5.918842518183762
 30
0.0
 10
15.35226560701537
 20
-5.897724354619994
 30
0.0
 10
15.35226560701537
 20
-5.897724354619994
 30
0.0
 10
15.36360458354683
 20
-5.891946359964777
 30
0.0
 10
15.37271916753035
 20
-5.887497575347601
 30
0.0
 10
15.38317652499649
 20
-5.882831776846666
 30
0.0
 10
15.38317652499649
 20
-5.882831776846666
 30
0.0
 10
15.38317652504823
 20
-5.882384185711417
 30
0.0
 10
15.38317652504823
 20
-5.882384185711417
 30
0.0
 10
15.37338377365364
 20
-5.878165978345755
 30
0.0
 10
15.36360458573078
 20
-5.87305258870957
 30
0.0
 10
15.35226561053509
 20
-5.867274594054328
 30
0.0
 10
15.35226561053509
 20
-5.867274594054328
 30
0.0
 10
15.31092446657794
 20
-5.845708839355287
 30
0.0
 10
15.31092446657794
 20
-5.845708839355287
 30
0.0
 10
15.31092446657794
 20
-5.845708839355287
 30
0.0
 10
15.31092446912248
 20
-5.823695493520972
 30
0.0
 10
15.31092446912248
 20
-5.823695493520972
 30
0.0
 10
15.31092446912248
 20
-5.823695493520972
 30
0.0
 10
15.39695690817494
 20
-5.873934207612339
 30
0.0
 10
15.39695690817494
 20
-5.873934207612339
 30
0.0
 10
15.39695690817494
 20
-5.873934207612339
 30
0.0
 10
15.46075899245994
 20
-5.873934207612339
 30
0.0
 10
15.46075899245994
 20
-5.873934207612339
 30
0.0
 10
15.46075899245994
 20
-5.873934207612339
 30
0.0
 10
15.46075899019759
 20
-5.893506147254331
 30
0.0
 10
15.46075899019759
 20
-5.893506147254331
 30
0.0
  0
SPLINE
  5
82
330
47
100
AcDbEntity
  8
BOTTOM
 62
     1
420
 16711680
370
    35
100
AcDbSpline
210
0.0
220
0.0
230
1.0
 70
    11
 71
     3
 72
    32
 73
    28
 74
     0
 42
0.0000000001
 43
0.0000000001
 12
1.0
 22
0.0
 32
0.0
 13
1.0
 23
0.0
 33
0.0
 40
0.0
 40
0.0
 40
0.0
 40
0.0
 40
1.0
 40
1.0
 40
1.0
 40
2.0
 40
2.0
 40
2.0
 40
3.0
 40
3.0
 40
3.0
 40
4.0
 40
4.0
 40
4.0
 40
5.0
 40
5.0
 40
5.0
 40
6.0
 40
6.0
 40
6.0
 40
7.0
 40
7.0
 40
7.0
 40
8.0
 40
8.0
 40
8.0
 40
9.0
 40
9.0
 40
9.0
 40
9.0
 10
15.31270127778154
 20
-5.759527200765484
 30
0.0
 10
15.31114149151055
 20
-5.750195603763637
 30
0.0
 10
15.30981228283544
 20
-5.737961446066442
 30
0.0
 10
15.30981228463371
 20
-5.722404263274105
 30
0.0
 10
15.30981228684431
 20
-5.703279914767386
 30
0.0
 10
15.31426107325087
 20
-5.689282519264603
 30
0.0
 10
15.32226346155148
 20
-5.680384950030303
 30
0.0
 10
15.32937066746869
 20
-5.672165549182737
 30
0.0
 10
15.34026205274576
 20
-5.667268909778815
 30
0.0
 10
15.3536084071115
 20
-5.667268909778815
 30
0.0
 10
15.36717177536937
 20
-5.667268909778815
 30
0.0
 10
15.37783258235751
 20
-5.671270366912191
 30
0.0
 10
15.38561795486268
 20
-5.678838726108475
 30
0.0
 10
15.39650933839319
 20
-5.689051942013116
 30
0.0
 10
15.4020703174505
 20
-5.705734884327486
 30
0.0
 10
15.40207031526655
 20
-5.724628655582692
 30
0.0
 10
15.40207031459868
 20
-5.73040665023791
 30
0.0
 10
15.40183973672058
 20
-5.735750617125581
 30
0.0
 10
15.40074110337905
 20
-5.740185572881501
 30
0.0
 10
15.40074110337905
 20
-5.740185572881501
 30
0.0
 10
15.46075900792008
 20
-5.740185572881501
 30
0.0
 10
15.46075900792008
 20
-5.740185572881501
 30
0.0
 10
15.46075900792008
 20
-5.740185572881501
 30
0.0
 10
15.46075900568437
 20
-5.759527200765484
 30
0.0
 10
15.46075900568437
 20
-5.759527200765484
 30
0.0
 10
15.46075900568437
 20
-5.759527200765484
 30
0.0
 10
15.31270127778154
 20
-5.759527200765484
 30
0.0
 10
15.31270127778154
 20
-5.759527200765484
 30
0.0
  0
SPLINE
  5
83
330
47
100
AcDbEntity
  8
BOTTOM
 62
     1
420
 16711680
370
    35
100
AcDbSpline
210
0.0
220
0.0
230
1.0
 70
    11
 71
     3
 72
    20
 73
    16
 74
     0
 42
0.0000000001
 43
0.0000000001
 12
1.0
 22
0.0
 32
0.0
 13
1.0
 23
0.0
 33
0.0
 40
0.0
 40
0.0
 40
0.0
 40
0.0
 40
1.0
 40
1.0
 40
1.0
 40
2.0
 40
2.0
 40
2.0
 40
3.0
 40
3.0
 40
3.0
 40
4.0
 40
4.0
 40
4.0
 40
5.0
 40
5.0
 40
5.0
 40
5.0
 10
15.3849533427269
 20
-5.740185572881501
 30
0.0
 10
15.3860655394116
 20
-5.735967631009367
 30
0.0
 10
15.38651313118026
 20
-5.730637227489397
 30
0.0
 10
15.38651313192652
 20
-5.72418106444742
 30
0.0
 10
15.38651313462472
 20
-5.700838508575063
 30
0.0
 10
15.37517416040578
 20
-5.686610535820768
 30
0.0
 10
15.35449002381253
 20
-5.686610535820768
 30
0.0
 10
15.33471463289258
 20
-5.686610535820768
 30
0.0
 10
15.32515245665124
 20
-5.700621494691277
 30
0.0
 10
15.32515245418507
 20
-5.721956672138831
 30
0.0
 10
15.32515245320835
 20
-5.73040665023791
 30
0.0
 10
15.32581705750827
 20
-5.736849249912161
 30
0.0
 10
15.32669867605937
 20
-5.740185572881501
 30
0.0
 10
15.32669867605937
 20
-5.740185572881501
 30
0.0
 10
15.3849533427269
 20
-5.740185572881501
 30
0.0
 10
15.3849533427269
 20
-5.740185572881501
 30
0.0
  0
POLYLINE
  5
84
330
47
100
AcDbEntity
  8
BOTTOM
 62
     1
420
 16711680
370
    35
100
AcDb2dPolyline
 66
     1
 10
0.0
 20
0.0
 30
0.0
  0
VERTEX
  5
85
330
84
100
AcDbEntity
  8
BOTTOM
 62
     1
420
 16711680
370
    35
100
AcDbVertex
100
AcDb2dVertex
 10
15.41362631529609
 20
-5.635747906813574
 30
0.0
  0
VERTEX
  5
86
330
84
100
AcDbEntity
  8
BOTTOM
 62
     1
420
 16711680
370
    35
100
AcDbVertex
100
AcDb2dVertex
 10
15.46075901819389
 20
-5.651305089605911
 30
0.0
  0
VERTEX
  5
87
330
84
100
AcDbEntity
  8
BOTTOM
 62
     1
420
 16711680
370
    35
100
AcDbVertex
100
AcDb2dVertex
 10
15.46075901588137
 20
-5.671311057015398
 30
0.0
  0
VERTEX
  5
88
330
84
100
AcDbEntity
  8
BOTTOM
 62
     1
420
 16711680
370
    35
100
AcDbVertex
100
AcDb2dVertex
 10
15.31092449262074
 20
-5.620407737904998
 30
0.0
  0
VERTEX
  5
89
330
84
100
AcDbEntity
  8
BOTTOM
 62
     1
420
 16711680
370
    35
100
AcDbVertex
100
AcDb2dVertex
 10
15.31092449531894
 20
-5.597065182032641
 30
0.0
  0
VERTEX
  5
8A
330
84
100
AcDbEntity
  8
BOTTOM
 62
     1
420
 16711680
370
    35
100
AcDbVertex
100
AcDb2dVertex
 10
15.46075903037417
 20
-5.545931285670727
 30
0.0
  0
VERTEX
  5
8B
330
84
100
AcDbEntity
  8
BOTTOM
 62
     1
420
 16711680
370
    35
100
AcDbVertex
100
AcDb2dVertex
 10
15.46075902798482
 20
-5.566601858099248
 30
0.0
  0
VERTEX
  5
8C
330
84
100
AcDbEntity
  8
BOTTOM
 62
     1
420
 16711680
370
    35
100
AcDbVertex
100
AcDb2dVertex
 10
15.41362632143874
 20
-5.582606632026859
 30
0.0
  0
VERTEX
  5
8D
330
84
100
AcDbEntity
  8
BOTTOM
 62
     1
420
 16711680
370
    35
100
AcDbVertex
100
AcDb2dVertex
 10
15.41362631529609
 20
-5.635747906813574
 30
0.0
  0
SEQEND
  5
8E
330
84
100
AcDbEntity
  8
BOTTOM
 62
     1
420
 16711680
370
    35
  0
SPLINE
  5
8F
330
47
100
AcDbEntity
  8
BOTTOM
 62
     1
420
 16711680
370
    35
100
AcDbSpline
210
0.0
220
0.0
230
1.0
 70
    11
 71
     3
 72
    23
 73
    19
 74
     0
 42
0.0000000001
 43
0.0000000001
 12
1.0
 22
0.0
 32
0.0
 13
1.0
 23
0.0
 33
0.0
 40
0.0
 40
0.0
 40
0.0
 40
0.0
 40
1.0
 40
1.0
 40
1.0
 40
2.0
 40
2.0
 40
2.0
 40
3.0
 40
3.0
 40
3.0
 40
4.0
 40
4.0
 40
4.0
 40
5.0
 40
5.0
 40
5.0
 40
6.0
 40
6.0
 40
6.0
 40
6.0
 10
15.39851672873697
 20
-5.586607825508761
 30
0.0
 10
15.39851672873697
 20
-5.586607825508761
 30
0.0
 10
15.3553852159806
 20
-5.601283389398304
 30
0.0
 10
15.3553852159806
 20
-5.601283389398304
 30
0.0
 10
15.34560602708103
 20
-5.604619977861173
 30
0.0
 10
15.33670845724674
 20
-5.606844370169761
 30
0.0
 10
15.32804146467285
 20
-5.609068762478324
 30
0.0
 10
15.32804146467285
 20
-5.609068762478324
 30
0.0
 10
15.32804146462111
 20
-5.609516353613596
 30
0.0
 10
15.32804146462111
 20
-5.609516353613596
 30
0.0
 10
15.33692547057288
 20
-5.611740745922185
 30
0.0
 10
15.34604005375996
 20
-5.614182152114507
 30
0.0
 10
15.3551546368953
 20
-5.617071149442128
 30
0.0
 10
15.3551546368953
 20
-5.617071149442128
 30
0.0
 10
15.39851672351933
 20
-5.631746713331672
 30
0.0
 10
15.39851672351933
 20
-5.631746713331672
 30
0.0
 10
15.39851672351933
 20
-5.631746713331672
 30
0.0
 10
15.39851672873697
 20
-5.586607825508761
 30
0.0
 10
15.39851672873697
 20
-5.586607825508761
 30
0.0
  0
SPLINE
  5
90
330
47
100
AcDbEntity
  8
BOTTOM
 62
     1
420
 16711680
370
    35
100
AcDbSpline
210
0.0
220
0.0
230
1.0
 70
    11
 71
     3
 72
    35
 73
    31
 74
     0
 42
0.0000000001
 43
0.0000000001
 12
1.0
 22
0.0
 32
0.0
 13
1.0
 23
0.0
 33
0.0
 40
0.0
 40
0.0
 40
0.0
 40
0.0
 40
1.0
 40
1.0
 40
1.0
 40
2.0
 40
2.0
 40
2.0
 40
3.0
 40
3.0
 40
3.0
 40
4.0
 40
4.0
 40
4.0
 40
5.0
 40
5.0
 40
5.0
 40
6.0
 40
6.0
 40
6.0
 40
7.0
 40
7.0
 40
7.0
 40
8.0
 40
8.0
 40
8.0
 40
9.0
 40
9.0
 40
9.0
 40
10.0
 40
10.0
 40
10.0
 40
10.0
 10
15.45586266869069
 20
-5.42258601948634
 30
0.0
 10
15.45942983371942
 20
-5.42970678754735
 30
0.0
 10
15.46298343455833
 20
-5.44393476030162
 30
0.0
 10
15.46298343245121
 20
-5.462163926537818
 30
0.0
 10
15.46298342756907
 20
-5.504400253665381
 30
0.0
 10
15.43630427853092
 20
-5.536192787636815
 30
0.0
 10
15.38717775870095
 20
-5.536192787636815
 30
0.0
 10
15.340262067897
 20
-5.536192787636815
 30
0.0
 10
15.30846953637549
 20
-5.504400253665381
 30
0.0
 10
15.30846954174679
 20
-5.457932155804403
 30
0.0
 10
15.30846954390409
 20
-5.439268961800685
 30
0.0
 10
15.3124707389026
 20
-5.427482395238763
 30
0.0
 10
15.31514272304045
 20
-5.422369005602579
 30
0.0
 10
15.31514272304045
 20
-5.422369005602579
 30
0.0
 10
15.33093048315327
 20
-5.427034804103489
 30
0.0
 10
15.33093048315327
 20
-5.427034804103489
 30
0.0
 10
15.32737687982154
 20
-5.434372586048261
 30
0.0
 10
15.32470489506752
 20
-5.444816379204414
 30
0.0
 10
15.32470489362827
 20
-5.457267550785369
 30
0.0
 10
15.32470488956766
 20
-5.492396673219673
 30
0.0
 10
15.34715226133623
 20
-5.515739229092055
 30
0.0
 10
15.38651315602056
 20
-5.515739229092055
 30
0.0
 10
15.42318850378981
 20
-5.515739229092055
 30
0.0
 10
15.44674807689479
 20
-5.494621065528261
 30
0.0
 10
15.44674808110906
 20
-5.458162733055915
 30
0.0
 10
15.44674808247148
 20
-5.446376166493969
 30
0.0
 10
15.44430667757256
 20
-5.434372586048261
 30
0.0
 10
15.44052249872854
 20
-5.426587212968242
 30
0.0
 10
15.44052249872854
 20
-5.426587212968242
 30
0.0
 10
15.45586266869069
 20
-5.42258601948634
 30
0.0
 10
15.45586266869069
 20
-5.42258601948634
 30
0.0
  0
SPLINE
  5
91
330
47
100
AcDbEntity
  8
BOTTOM
 62
     1
420
 16711680
370
    35
100
AcDbSpline
210
0.0
220
0.0
230
1.0
 70
    11
 71
     3
 72
    47
 73
    43
 74
     0
 42
0.0000000001
 43
0.0000000001
 12
1.0
 22
0.0
 32
0.0
 13
1.0
 23
0.0
 33
0.0
 40
0.0
 40
0.0
 40
0.0
 40
0.0
 40
1.0
 40
1.0
 40
1.0
 40
2.0
 40
2.0
 40
2.0
 40
3.0
 40
3.0
 40
3.0
 40
4.0
 40
4.0
 40
4.0
 40
5.0
 40
5.0
 40
5.0
 40
6.0
 40
6.0
 40
6.0
 40
7.0
 40
7.0
 40
7.0
 40
8.0
 40
8.0
 40
8.0
 40
9.0
 40
9.0
 40
9.0
 40
10.0
 40
10.0
 40
10.0
 40
11.0
 40
11.0
 40
11.0
 40
12.0
 40
12.0
 40
12.0
 40
13.0
 40
13.0
 40
13.0
 40
14.0
 40
14.0
 40
14.0
 40
14.0
 10
15.310924518281
 20
-5.398416098182123
 30
0.0
 10
15.310924518281
 20
-5.398416098182123
 30
0.0
 10
15.31092452051671
 20
-5.379074479420549
 30
0.0
 10
15.31092452051671
 20
-5.379074479420549
 30
0.0
 10
15.31092452051671
 20
-5.379074479420549
 30
0.0
 10
15.38317658322636
 20
-5.379074479420549
 30
0.0
 10
15.38317658322636
 20
-5.379074479420549
 30
0.0
 10
15.38317658322636
 20
-5.379074479420549
 30
0.0
 10
15.38317658330314
 20
-5.37841013077261
 30
0.0
 10
15.38317658330314
 20
-5.37841013077261
 30
0.0
 10
15.3773985888878
 20
-5.374408937290708
 30
0.0
 10
15.37205462225671
 20
-5.370407743808806
 30
0.0
 10
15.36717181012129
 20
-5.366623564210689
 30
0.0
 10
15.36717181012129
 20
-5.366623564210689
 30
0.0
 10
15.31092452724884
 20
-5.320833634736472
 30
0.0
 10
15.31092452724884
 20
-5.320833634736472
 30
0.0
 10
15.31092452724884
 20
-5.320833634736472
 30
0.0
 10
15.31092453002386
 20
-5.296826473845082
 30
0.0
 10
15.31092453002386
 20
-5.296826473845082
 30
0.0
 10
15.31092453002386
 20
-5.296826473845082
 30
0.0
 10
15.3744960307788
 20
-5.351066381418351
 30
0.0
 10
15.3744960307788
 20
-5.351066381418351
 30
0.0
 10
15.3744960307788
 20
-5.351066381418351
 30
0.0
 10
15.46075905965762
 20
-5.292594703111667
 30
0.0
 10
15.46075905965762
 20
-5.292594703111667
 30
0.0
 10
15.46075905965762
 20
-5.292594703111667
 30
0.0
 10
15.46075905700961
 20
-5.315503231216502
 30
0.0
 10
15.46075905700961
 20
-5.315503231216502
 30
0.0
 10
15.46075905700961
 20
-5.315503231216502
 30
0.0
 10
15.38717777850701
 20
-5.364846763037374
 30
0.0
 10
15.38717777850701
 20
-5.364846763037374
 30
0.0
 10
15.38717777850701
 20
-5.364846763037374
 30
0.0
 10
15.4036301425592
 20
-5.379074479420549
 30
0.0
 10
15.4036301425592
 20
-5.379074479420549
 30
0.0
 10
15.4036301425592
 20
-5.379074479420549
 30
0.0
 10
15.46075904966132
 20
-5.379074479420549
 30
0.0
 10
15.46075904966132
 20
-5.379074479420549
 30
0.0
 10
15.46075904966132
 20
-5.379074479420549
 30
0.0
 10
15.4607590474256
 20
-5.398416098182123
 30
0.0
 10
15.4607590474256
 20
-5.398416098182123
 30
0.0
 10
15.4607590474256
 20
-5.398416098182123
 30
0.0
 10
15.310924518281
 20
-5.398416098182123
 30
0.0
 10
15.310924518281
 20
-5.398416098182123
 30
0.0
  0
ENDBLK
  5
4A
330
47
100
AcDbEntity
  8
0
100
AcDbBlockEnd
  0
ENDSEC
  0
SECTION
  2
ENTITIES
  0
SPLINE
  5
41
330
1F
100
AcDbEntity
  8
BOTTOM
 62
     1
420
 16711680
370
    35
100
AcDbSpline
210
0.0
220
0.0
230
1.0
 70
    11
 71
     3
 72
   155
 73
   151
 74
     0
 42
0.0000000001
 43
0.0000000001
 12
1.0
 22
0.0
 32
0.0
 13
1.0
 23
0.0
 33
0.0
 40
0.0
 40
0.0
 40
0.0
 40
0.0
 40
1.0
 40
1.0
 40
1.0
 40
2.0
 40
2.0
 40
2.0
 40
3.0
 40
3.0
 40
3.0
 40
4.0
 40
4.0
 40
4.0
 40
5.0
 40
5.0
 40
5.0
 40
6.0
 40
6.0
 40
6.0
 40
7.0
 40
7.0
 40
7.0
 40
8.0
 40
8.0
 40
8.0
 40
9.0
 40
9.0
 40
9.0
 40
10.0
 40
10.0
 40
10.0
 40
11.0
 40
11.0
 40
11.0
 40
12.0
 40
12.0
 40
12.0
 40
13.0
 40
13.0
 40
13.0
 40
14.0
 40
14.0
 40
14.0
 40
15.0
 40
15.0
 40
15.0
 40
16.0
 40
16.0
 40
16.0
 40
17.0
 40
17.0
 40
17.0
 40
18.0
 40
18.0
 40
18.0
 40
19.0
 40
19.0
 40
19.0
 40
20.0
 40
20.0
 40
20.0
 40
21.0
 40
21.0
 40
21.0
 40
22.0
 40
22.0
 40
22.0
 40
23.0
 40
23.0
 40
23.0
 40
24.0
 40
24.0
 40
24.0
 40
25.0
 40
25.0
 40
25.0
 40
26.0
 40
26.0
 40
26.0
 40
27.0
 40
27.0
 40
27.0
 40
28.0
 40
28.0
 40
28.0
 40
29.0
 40
29.0
 40
29.0
 40
30.0
 40
30.0
 40
30.0
 40
31.0
 40
31.0
 40
31.0
 40
32.0
 40
32.0
 40
32.0
 40
33.0
 40
33.0
 40
33.0
 40
34.0
 40
34.0
 40
34.0
 40
35.0
 40
35.0
 40
35.0
 40
36.0
 40
36.0
 40
36.0
 40
37.0
 40
37.0
 40
37.0
 40
38.0
 40
38.0
 40
38.0
 40
39.0
 40
39.0
 40
39.0
 40
40.0
 40
40.0
 40
40.0
 40
41.0
 40
41.0
 40
41.0
 40
42.0
 40
42.0
 40
42.0
 40
43.0
 40
43.0
 40
43.0
 40
44.0
 40
44.0
 40
44.0
 40
45.0
 40
45.0
 40
45.0
 40
46.0
 40
46.0
 40
46.0
 40
47.0
 40
47.0
 40
47.0
 40
48.0
 40
48.0
 40
48.0
 40
49.0
 40
49.0
 40
49.0
 40
50.0
 40
50.0
 40
50.0
 40
50.0
 10
14.18662043116865
 20
-13.08392464471414
 30
0.0
 10
13.22061996577809
 20
-13.08392464471414
 30
0.0
 10
12.43662007183434
 20
-12.29992469035516
 30
0.0
 10
12.43662018349535
 20
-11.33392468604085
 30
0.0
 10
12.43662018349535
 20
-11.33392468604085
 30
0.0
 10
12.43662018349535
 20
-11.33392468604085
 30
0.0
 10
12.43662018349535
 20
-11.33392468604085
 30
0.0
 10
12.43662018349535
 20
-11.33392468604085
 30
0.0
 10
12.43662041467756
 20
-9.333924733271386
 30
0.0
 10
12.43662041467756
 20
-9.333924733271386
 30
0.0
 10
12.43662041467756
 20
-9.333924733271386
 30
0.0
 10
12.18662041094864
 20
-9.333924733271386
 30
0.0
 10
12.18662041094864
 20
-9.333924733271386
 30
0.0
 10
12.18662041094864
 20
-9.333924733271386
 30
0.0
 10
12.18662049764197
 20
-8.58392475098281
 30
0.0
 10
12.18662049764197
 20
-8.58392475098281
 30
0.0
 10
12.18662049764197
 20
-8.58392475098281
 30
0.0
 10
12.4366205013709
 20
-8.58392475098281
 30
0.0
 10
12.4366205013709
 20
-8.58392475098281
 30
0.0
 10
12.4366205013709
 20
-8.58392475098281
 30
0.0
 10
12.43662067475755
 20
-7.083924786405709
 30
0.0
 10
12.43662067475755
 20
-7.083924786405709
 30
0.0
 10
12.43662067475755
 20
-7.083924786405709
 30
0.0
 10
12.18662067102862
 20
-7.083924786405709
 30
0.0
 10
12.18662067102862
 20
-7.083924786405709
 30
0.0
 10
12.18662067102862
 20
-7.083924786405709
 30
0.0
 10
12.18662075772204
 20
-6.33392395640668
 30
0.0
 10
12.18662075772204
 20
-6.33392395640668
 30
0.0
 10
12.18662075772204
 20
-6.33392395640668
 30
0.0
 10
12.43662076145097
 20
-6.33392395640668
 30
0.0
 10
12.43662076145097
 20
-6.33392395640668
 30
0.0
 10
12.43662076145097
 20
-6.33392395640668
 30
0.0
 10
12.43662099263328
 20
-4.333923155926742
 30
0.0
 10
12.43662099263328
 20
-4.333923155926742
 30
0.0
 10
12.43662110429419
 20
-3.367923999322834
 30
0.0
 10
13.22062117948477
 20
-2.583924044963952
 30
0.0
 10
14.18662164487533
 20
-2.583924044963952
 30
0.0
 10
14.18662164487533
 20
-2.583924044963952
 30
0.0
 10
14.68662165233319
 20
-2.583924044963952
 30
0.0
 10
14.68662165233319
 20
-2.583924044963952
 30
0.0
 10
14.68662165233319
 20
-2.583924044963952
 30
0.0
 10
14.68662168123097
 20
-2.33392405086776
 30
0.0
 10
14.68662168123097
 20
-2.33392405086776
 30
0.0
 10
14.68662168123097
 20
-2.33392405086776
 30
0.0
 10
15.1866216886888
 20
-2.33392405086776
 30
0.0
 10
15.1866216886888
 20
-2.33392405086776
 30
0.0
 10
15.1866216886888
 20
-2.33392405086776
 30
0.0
 10
15.18662165979102
 20
-2.583924044963952
 30
0.0
 10
15.18662165979102
 20
-2.583924044963952
 30
0.0
 10
15.18662165979102
 20
-2.583924044963952
 30
0.0
 10
15.68662166724888
 20
-2.583924044963952
 30
0.0
 10
15.68662166724888
 20
-2.583924044963952
 30
0.0
 10
15.68662166724888
 20
-2.583924044963952
 30
0.0
 10
15.68662169614666
 20
-2.33392405086776
 30
0.0
 10
15.68662169614666
 20
-2.33392405086776
 30
0.0
 10
15.68662169614666
 20
-2.33392405086776
 30
0.0
 10
16.18662170360451
 20
-2.33392405086776
 30
0.0
 10
16.18662170360451
 20
-2.33392405086776
 30
0.0
 10
16.18662170360451
 20
-2.33392405086776
 30
0.0
 10
16.18662167470673
 20
-2.583924044963952
 30
0.0
 10
16.18662167470673
 20
-2.583924044963952
 30
0.0
 10
16.18662167470673
 20
-2.583924044963952
 30
0.0
 10
16.68662168216456
 20
-2.583924044963952
 30
0.0
 10
16.68662168216456
 20
-2.583924044963952
 30
0.0
 10
17.65262172369987
 20
-2.583924044963952
 30
0.0
 10
18.43662161764362
 20
-3.367923999322834
 30
0.0
 10
18.43662150598271
 20
-4.333923155926742
 30
0.0
 10
18.43662150598271
 20
-4.333923155926742
 30
0.0
 10
18.43662150598271
 20
-4.333923155926742
 30
0.0
 10
18.43662150598271
 20
-4.333923155926742
 30
0.0
 10
18.43662150598271
 20
-4.333923155926742
 30
0.0
 10
18.43662141607852
 20
-5.111700915337097
 30
0.0
 10
18.43662141607852
 20
-5.111700915337097
 30
0.0
 10
18.43662141607852
 20
-5.111700915337097
 30
0.0
 10
18.68662141980745
 20
-5.111700915337097
 30
0.0
 10
18.68662141980745
 20
-5.111700915337097
 30
0.0
 10
18.68662141980745
 20
-5.111700915337097
 30
0.0
 10
18.68662132990324
 20
-5.889478674747427
 30
0.0
 10
18.68662132990324
 20
-5.889478674747427
 30
0.0
 10
18.68662132990324
 20
-5.889478674747427
 30
0.0
 10
18.43662132617434
 20
-5.889478674747427
 30
0.0
 10
18.43662132617434
 20
-5.889478674747427
 30
0.0
 10
18.43662132617434
 20
-5.889478674747427
 30
0.0
 10
18.43662123627003
 20
-6.66725728186826
 30
0.0
 10
18.43662123627003
 20
-6.66725728186826
 30
0.0
 10
18.43662123627003
 20
-6.66725728186826
 30
0.0
 10
18.68662123999896
 20
-6.66725728186826
 30
0.0
 10
18.68662123999896
 20
-6.66725728186826
 30
0.0
 10
18.68662123999896
 20
-6.66725728186826
 30
0.0
 10
18.68662115009468
 20
-7.445035888989095
 30
0.0
 10
18.68662115009468
 20
-7.445035888989095
 30
0.0
 10
18.68662115009468
 20
-7.445035888989095
 30
0.0
 10
18.43662114636575
 20
-7.445035888989095
 30
0.0
 10
18.43662114636575
 20
-7.445035888989095
 30
0.0
 10
18.43662114636575
 20
-7.445035888989095
 30
0.0
 10
18.43662105646156
 20
-8.22281364839945
 30
0.0
 10
18.43662105646156
 20
-8.22281364839945
 30
0.0
 10
18.43662105646156
 20
-8.22281364839945
 30
0.0
 10
18.68662106019049
 20
-8.22281364839945
 30
0.0
 10
18.68662106019049
 20
-8.22281364839945
 30
0.0
 10
18.68662106019049
 20
-8.22281364839945
 30
0.0
 10
18.68662097028628
 20
-9.00059140780978
 30
0.0
 10
18.68662097028628
 20
-9.00059140780978
 30
0.0
 10
18.68662097028628
 20
-9.00059140780978
 30
0.0
 10
18.43662096655736
 20
-9.00059140780978
 30
0.0
 10
18.43662096655736
 20
-9.00059140780978
 30
0.0
 10
18.43662096655736
 20
-9.00059140780978
 30
0.0
 10
18.43662087665317
 20
-9.778369167220161
 30
0.0
 10
18.43662087665317
 20
-9.778369167220161
 30
0.0
 10
18.43662087665317
 20
-9.778369167220161
 30
0.0
 10
18.6866208803821
 20
-9.778369167220161
 30
0.0
 10
18.6866208803821
 20
-9.778369167220161
 30
0.0
 10
18.6866208803821
 20
-9.778369167220161
 30
0.0
 10
18.68662079047792
 20
-10.55614692663052
 30
0.0
 10
18.68662079047792
 20
-10.55614692663052
 30
0.0
 10
18.68662079047792
 20
-10.55614692663052
 30
0.0
 10
18.43662078674899
 20
-10.55614692663052
 30
0.0
 10
18.43662078674899
 20
-10.55614692663052
 30
0.0
 10
18.43662078674899
 20
-10.55614692663052
 30
0.0
 10
18.43662069684478
 20
-11.33392468604085
 30
0.0
 10
18.43662069684478
 20
-11.33392468604085
 30
0.0
 10
18.43662058518379
 20
-12.29992469035516
 30
0.0
 10
17.65262050999318
 20
-13.08392464471414
 30
0.0
 10
16.68662046845791
 20
-13.08392464471414
 30
0.0
 10
16.68662046845791
 20
-13.08392464471414
 30
0.0
 10
16.18662046100005
 20
-13.08392464471414
 30
0.0
 10
16.18662046100005
 20
-13.08392464471414
 30
0.0
 10
16.18662046100005
 20
-13.08392464471414
 30
0.0
 10
16.18662043210227
 20
-13.33392463881031
 30
0.0
 10
16.18662043210227
 20
-13.33392463881031
 30
0.0
 10
16.18662043210227
 20
-13.33392463881031
 30
0.0
 10
15.68662042464444
 20
-13.33392463881031
 30
0.0
 10
15.68662042464444
 20
-13.33392463881031
 30
0.0
 10
15.68662042464444
 20
-13.33392463881031
 30
0.0
 10
15.68662045354219
 20
-13.08392464471414
 30
0.0
 10
15.68662045354219
 20
-13.08392464471414
 30
0.0
 10
15.68662045354219
 20
-13.08392464471414
 30
0.0
 10
15.18662044608436
 20
-13.08392464471414
 30
0.0
 10
15.18662044608436
 20
-13.08392464471414
 30
0.0
 10
15.18662044608436
 20
-13.08392464471414
 30
0.0
 10
15.18662041718658
 20
-13.33392463881031
 30
0.0
 10
15.18662041718658
 20
-13.33392463881031
 30
0.0
 10
15.18662041718658
 20
-13.33392463881031
 30
0.0
 10
14.68662040972873
 20
-13.33392463881031
 30
0.0
 10
14.68662040972873
 20
-13.33392463881031
 30
0.0
 10
14.68662040972873
 20
-13.33392463881031
 30
0.0
 10
14.68662043862651
 20
-13.08392464471414
 30
0.0
 10
14.68662043862651
 20
-13.08392464471414
 30
0.0
 10
14.68662043862651
 20
-13.08392464471414
 30
0.0
 10
14.18662043116865
 20
-13.08392464471414
 30
0.0
 10
14.18662043116865
 20
-13.08392464471414
 30
0.0
  0
SPLINE
  5
42
330
1F
100
AcDbEntity
  8
BOTTOM
 62
     1
420
 16711680
370
    35
100
AcDbSpline
210
0.0
220
0.0
230
1.0
 70
    11
 71
     3
 72
    32
 73
    28
 74
     0
 42
0.0000000001
 43
0.0000000001
 12
1.0
 22
0.0
 32
0.0
 13
1.0
 23
0.0
 33
0.0
 40
0.0
 40
0.0
 40
0.0
 40
0.0
 40
1.0
 40
1.0
 40
1.0
 40
2.0
 40
2.0
 40
2.0
 40
3.0
 40
3.0
 40
3.0
 40
4.0
 40
4.0
 40
4.0
 40
5.0
 40
5.0
 40
5.0
 40
6.0
 40
6.0
 40
6.0
 40
7.0
 40
7.0
 40
7.0
 40
8.0
 40
8.0
 40
8.0
 40
9.0
 40
9.0
 40
9.0
 40
9.0
 10
16.52054631261725
 20
-6.064598179035152
 30
0.0
 10
16.52054631292776
 20
-6.061911784513086
 30
0.0
 10
16.52039965931489
 20
-6.059260993831331
 30
0.0
 10
16.52034371072978
 20
-6.056588162677017
 30
0.0
 10
16.52034371072978
 20
-6.056588162677017
 30
0.0
 10
16.52054631354314
 20
-6.056588162677017
 30
0.0
 10
16.52054631354314
 20
-6.056588162677017
 30
0.0
 10
16.52054631354314
 20
-6.056588162677017
 30
0.0
 10
16.52054636720193
 20
-5.592375967964598
 30
0.0
 10
16.52054636720193
 20
-5.592375967964598
 30
0.0
 10
16.52054636720193
 20
-5.592375967964598
 30
0.0
 10
15.77054635601515
 20
-5.592375967964598
 30
0.0
 10
15.77054635601515
 20
-5.592375967964598
 30
0.0
 10
15.77054635601515
 20
-5.592375967964598
 30
0.0
 10
15.77054630235635
 20
-6.056588162677017
 30
0.0
 10
15.77054630235635
 20
-6.056588162677017
 30
0.0
 10
15.77054630235635
 20
-6.056588162677017
 30
0.0
 10
15.77074890516971
 20
-6.056588162677017
 30
0.0
 10
15.77074890516971
 20
-6.056588162677017
 30
0.0
 10
15.77069295596668
 20
-6.059260993831331
 30
0.0
 10
15.77054630174098
 20
-6.061911784513086
 30
0.0
 10
15.77054630143046
 20
-6.064598179035152
 30
0.0
 10
15.77054627749077
 20
-6.271704870379077
 30
0.0
 10
15.93843956435323
 20
-6.439598170179427
 30
0.0
 10
16.14554626367718
 20
-6.439598170179427
 30
0.0
 10
16.35265296300114
 20
-6.439598170179427
 30
0.0
 10
16.52054628867755
 20
-6.271704870379077
 30
0.0
 10
16.52054631261725
 20
-6.064598179035152
 30
0.0
  0
INSERT
  5
44
330
1F
100
AcDbEntity
  8
BOTTOM
100
AcDbBlockReference
  2
block 2
 10
0.0
 20
0.0
 30
0.0
  0
ENDSEC
  0
SECTION
  2
OBJECTS
  0
DICTIONARY
  5
C
330
0
100
AcDbDictionary
281
     1
  3
ACAD_GROUP
350
D
  3
ACAD_LAYOUT
350
1A
  3
ACAD_MATERIAL
350
3B
  3
ACAD_MLEADERSTYLE
350
93
  3
ACAD_MLINESTYLE
350
17
  3
ACAD_PLOTSETTINGS
350
19
  3
ACAD_PLOTSTYLENAME
350
E
  3
ACAD_TABLESTYLE
350
92
  3
ACAD_VISUALSTYLE
350
2A
  0
SUN
  5
3F
330
29
100
AcDbSun
 90
        1
290
     0
 63
     7
421
 16777215
 40
1.0
291
     1
 91
  2455826
 92
 54000000
292
     0
 70
     2
 71
   256
280
     1
  0
DICTIONARY
  5
D
102
{ACAD_REACTORS
330
C
102
}
330
C
100
AcDbDictionary
281
     1
  0
DICTIONARY
  5
1A
102
{ACAD_REACTORS
330
C
102
}
330
C
100
AcDbDictionary
281
     1
  3
Layout1
350
1E
  3
Layout2
350
26
  3
Model
350
22
  0
DICTIONARY
  5
3B
102
{ACAD_REACTORS
330
C
102
}
330
C
100
AcDbDictionary
281
     1
  3
ByBlock
350
3D
  3
ByLayer
350
3C
  3
Global
350
3E
  0
DICTIONARY
  5
93
102
{ACAD_REACTORS
330
C
102
}
330
C
100
AcDbDictionary
281
     1
  0
DICTIONARY
  5
17
102
{ACAD_REACTORS
330
C
102
}
330
C
100
AcDbDictionary
281
     1
  3
Standard
350
18
  0
DICTIONARY
  5
19
102
{ACAD_REACTORS
330
C
102
}
330
C
100
AcDbDictionary
281
     1
  0
ACDBDICTIONARYWDFLT
  5
E
102
{ACAD_REACTORS
330
C
102
}
330
C
100
AcDbDictionary
281
     1
  3
Normal
350
F
100
AcDbDictionaryWithDefault
340
F
  0
DICTIONARY
  5
92
102
{ACAD_REACTORS
330
C
102
}
330
C
100
AcDbDictionary
281
     1
  0
DICTIONARY
  5
2A
102
{ACAD_REACTORS
330
C
102
}
330
C
100
AcDbDictionary
281
     1
  3
2dWireframe
350
2F
  3
3D Hidden
350
31
  3
3dWireframe
350
30
  3
Basic
350
32
  3
Brighten
350
36
  3
ColorChange
350
3A
  3
Conceptual
350
34
  3
Dim
350
35
  3
Facepattern
350
39
  3
Flat
350
2B
  3
FlatWithEdges
350
2C
  3
Gouraud
350
2D
  3
GouraudWithEdges
350
2E
  3
Linepattern
350
38
  3
Realistic
350
33
  3
Thicken
350
37
  0
LAYOUT
  5
1E
102
{ACAD_REACTORS
330
1A
102
}
330
1A
100
AcDbPlotSettings
  1

  2
none_device
  4

  6

 40
0.0
 41
0.0
 42
0.0
 43
0.0
 44
0.0
 45
0.0
 46
0.0
 47
0.0
 48
0.0
 49
0.0
140
0.0
141
0.0
142
1.0
143
1.0
 70
   688
 72
     0
 73
     0
 74
     5
  7

 75
    16
 76
     0
 77
     2
 78
   300
147
1.0
148
0.0
149
0.0
100
AcDbLayout
  1
Layout1
 70
     1
 71
     1
 10
0.0
 20
0.0
 11
12.0
 21
9.0
 12
0.0
 22
0.0
 32
0.0
 14
1.000000000000000E+20
 24
1.000000000000000E+20
 34
1.000000000000000E+20
 15
-1.000000000000000E+20
 25
-1.000000000000000E+20
 35
-1.000000000000000E+20
146
0.0
 13
0.0
 23
0.0
 33
0.0
 16
1.0
 26
0.0
 36
0.0
 17
0.0
 27
1.0
 37
0.0
 76
     0
330
1B
  0
LAYOUT
  5
26
102
{ACAD_REACTORS
330
1A
102
}
330
1A
100
AcDbPlotSettings
  1

  2
none_device
  4

  6

 40
0.0
 41
0.0
 42
0.0
 43
0.0
 44
0.0
 45
0.0
 46
0.0
 47
0.0
 48
0.0
 49
0.0
140
0.0
141
0.0
142
1.0
143
1.0
 70
   688
 72
     0
 73
     0
 74
     5
  7

 75
    16
 76
     0
 77
     2
 78
   300
147
1.0
148
0.0
149
0.0
100
AcDbLayout
  1
Layout2
 70
     1
 71
     2
 10
0.0
 20
0.0
 11
0.0
 21
0.0
 12
0.0
 22
0.0
 32
0.0
 14
0.0
 24
0.0
 34
0.0
 15
0.0
 25
0.0
 35
0.0
146
0.0
 13
0.0
 23
0.0
 33
0.0
 16
1.0
 26
0.0
 36
0.0
 17
0.0
 27
1.0
 37
0.0
 76
     0
330
23
  0
LAYOUT
  5
22
102
{ACAD_REACTORS
330
1A
102
}
330
1A
100
AcDbPlotSettings
  1

  2
none_device
  4

  6

 40
0.0
 41
0.0
 42
0.0
 43
0.0
 44
0.0
 45
0.0
 46
0.0
 47
0.0
 48
0.0
 49
0.0
140
0.0
141
0.0
142
1.0
143
1.0
 70
  1712
 72
     0
 73
     0
 74
     0
  7

 75
     0
 76
     0
 77
     2
 78
   300
147
1.0
148
0.0
149
0.0
100
AcDbLayout
  1
Model
 70
     1
 71
     0
 10
0.0
 20
0.0
 11
12.0
 21
9.0
 12
0.0
 22
0.0
 32
0.0
 14
1.000000000000000E+20
 24
1.000000000000000E+20
 34
1.000000000000000E+20
 15
-1.000000000000000E+20
 25
-1.000000000000000E+20
 35
-1.000000000000000E+20
146
0.0
 13
0.0
 23
0.0
 33
0.0
 16
1.0
 26
0.0
 36
0.0
 17
0.0
 27
1.0
 37
0.0
 76
     0
330
1F
331
29
  0
MATERIAL
  5
3D
102
{ACAD_REACTORS
330
3B
102
}
330
3B
100
AcDbMaterial
  1
ByBlock
 72
     1
 94
      127
  0
MATERIAL
  5
3C
102
{ACAD_REACTORS
330
3B
102
}
330
3B
100
AcDbMaterial
  1
ByLayer
 72
     1
 94
      127
  0
MATERIAL
  5
3E
102
{ACAD_REACTORS
330
3B
102
}
330
3B
100
AcDbMaterial
  1
Global
 72
     1
 94
      127
  0
MLINESTYLE
  5
18
102
{ACAD_REACTORS
330
17
102
}
330
17
100
AcDbMlineStyle
  2
Standard
 70
     0
  3

 62
   256
 51
90.0
 52
90.0
 71
     2
 49
0.5
 62
   256
  6
BYLAYER
 49
-0.5
 62
   256
  6
BYLAYER
  0
ACDBPLACEHOLDER
  5
F
102
{ACAD_REACTORS
330
E
102
}
330
E
  0
VISUALSTYLE
  5
2F
102
{ACAD_REACTORS
330
2A
102
}
330
2A
100
AcDbVisualStyle
  2
2dWireframe
 70
     4
177
     2
291
     0
 71
     0
176
     1
 72
     2
176
     1
 73
     0
176
     1
 90
        0
176
     1
 40
-0.6
176
     1
 41
-30.0
176
     1
 62
     5
 63
     7
421
 16777215
176
     1
 74
     1
176
     1
 91
        4
176
     1
 64
     7
176
     1
 65
   257
176
     1
 75
     1
176
     1
175
     1
176
     1
 42
1.0
176
     1
 92
        0
176
     1
 66
   257
176
     1
 43
1.0
176
     1
 76
     1
176
     1
 77
     6
176
     1
 78
     2
176
     1
 67
     7
176
     1
 79
     5
176
     1
170
     0
176
     1
171
     0
176
     1
290
     0
176
     1
 93
        1
176
     1
 44
0.0
176
     1
173
     0
176
     1
  0
VISUALSTYLE
  5
31
102
{ACAD_REACTORS
330
2A
102
}
330
2A
100
AcDbVisualStyle
  2
3D Hidden
 70
     6
177
     2
291
     0
 71
     1
176
     1
 72
     2
176
     1
 73
     2
176
     1
 90
        0
176
     1
 40
-0.6
176
     1
 41
-30.0
176
     1
 62
     5
 63
     7
421
 16777215
176
     1
 74
     2
176
     1
 91
        2
176
     1
 64
     7
176
     1
 65
   257
176
     1
 75
     2
176
     1
175
     1
176
     1
 42
40.0
176
     1
 92
        0
176
     1
 66
   257
176
     1
 43
1.0
176
     1
 76
     1
176
     1
 77
     6
176
     1
 78
     2
176
     1
 67
     7
176
     1
 79
     3
176
     1
170
     0
176
     1
171
     0
176
     1
290
     0
176
     1
 93
        1
176
     1
 44
0.0
176
     1
173
     0
176
     1
  0
VISUALSTYLE
  5
30
102
{ACAD_REACTORS
330
2A
102
}
330
2A
100
AcDbVisualStyle
  2
3dWireframe
 70
     5
177
     2
291
     0
 71
     0
176
     1
 72
     2
176
     1
 73
     0
176
     1
 90
        0
176
     1
 40
-0.6
176
     1
 41
-30.0
176
     1
 62
     5
 63
     7
421
 16777215
176
     1
 74
     1
176
     1
 91
        4
176
     1
 64
     7
176
     1
 65
   257
176
     1
 75
     1
176
     1
175
     1
176
     1
 42
1.0
176
     1
 92
        0
176
     1
 66
   257
176
     1
 43
1.0
176
     1
 76
     1
176
     1
 77
     6
176
     1
 78
     2
176
     1
 67
     7
176
     1
 79
     5
176
     1
170
     0
176
     1
171
     0
176
     1
290
     0
176
     1
 93
        1
176
     1
 44
0.0
176
     1
173
     0
176
     1
  0
VISUALSTYLE
  5
32
102
{ACAD_REACTORS
330
2A
102
}
330
2A
100
AcDbVisualStyle
  2
Basic
 70
     7
177
     2
291
     1
 71
     1
176
     1
 72
     0
176
     1
 73
     1
176
     1
 90
        0
176
     1
 40
-0.6
176
     1
 41
-30.0
176
     1
 62
     5
 63
     7
421
 16777215
176
     1
 74
     0
176
     1
 91
        4
176
     1
 64
     7
176
     1
 65
   257
176
     1
 75
     1
176
     1
175
     1
176
     1
 42
1.0
176
     1
 92
        8
176
     1
 66
     7
176
     1
 43
1.0
176
     1
 76
     1
176
     1
 77
     6
176
     1
 78
     2
176
     1
 67
     7
176
     1
 79
     5
176
     1
170
     0
176
     1
171
     0
176
     1
290
     0
176
     1
 93
        1
176
     1
 44
0.0
176
     1
173
     0
176
     1
  0
VISUALSTYLE
  5
36
102
{ACAD_REACTORS
330
2A
102
}
330
2A
100
AcDbVisualStyle
  2
Brighten
 70
    12
177
     2
291
     1
 71
     2
176
     1
 72
     2
176
     1
 73
     0
176
     1
 90
        0
176
     1
 40
-0.6
176
     1
 41
-30.0
176
     1
 62
     5
 63
     7
421
 16777215
176
     1
 74
     1
176
     1
 91
        4
176
     1
 64
     7
176
     1
 65
   257
176
     1
 75
     1
176
     1
175
     1
176
     1
 42
1.0
176
     1
 92
        8
176
     1
 66
     7
176
     1
 43
1.0
176
     1
 76
     1
176
     1
 77
     6
176
     1
 78
     2
176
     1
 67
     7
176
     1
 79
     5
176
     1
170
     0
176
     1
171
     0
176
     1
290
     0
176
     1
 93
        1
176
     1
 44
50.0
176
     1
173
     0
176
     1
  0
VISUALSTYLE
  5
3A
102
{ACAD_REACTORS
330
2A
102
}
330
2A
100
AcDbVisualStyle
  2
ColorChange
 70
    16
177
     2
291
     1
 71
     2
176
     1
 72
     2
176
     1
 73
     3
176
     1
 90
        0
176
     1
 40
-0.6
176
     1
 41
-30.0
176
     1
 62
     5
 63
     8
421
  8421504
176
     1
 74
     1
176
     1
 91
        4
176
     1
 64
     7
176
     1
 65
   257
176
     1
 75
     1
176
     1
175
     1
176
     1
 42
1.0
176
     1
 92
        8
176
     1
 66
     8
424
  8421504
176
     1
 43
1.0
176
     1
 76
     1
176
     1
 77
     6
176
     1
 78
     2
176
     1
 67
     7
176
     1
 79
     5
176
     1
170
     0
176
     1
171
     0
176
     1
290
     0
176
     1
 93
        1
176
     1
 44
0.0
176
     1
173
     0
176
     1
  0
VISUALSTYLE
  5
34
102
{ACAD_REACTORS
330
2A
102
}
330
2A
100
AcDbVisualStyle
  2
Conceptual
 70
     9
177
     2
291
     0
 71
     3
176
     1
 72
     2
176
     1
 73
     0
176
     1
 90
        0
176
     1
 40
-0.6
176
     1
 41
-30.0
176
     1
 62
     5
 63
     7
421
 16777215
176
     1
 74
     2
176
     1
 91
        2
176
     1
 64
     7
176
     1
 65
   257
176
     1
 75
     1
176
     1
175
     1
176
     1
 42
40.0
176
     1
 92
        8
176
     1
 66
     7
176
     1
 43
1.0
176
     1
 76
     1
176
     1
 77
     6
176
     1
 78
     2
176
     1
 67
     7
176
     1
 79
     3
176
     1
170
     0
176
     1
171
     0
176
     1
290
     0
176
     1
 93
        1
176
     1
 44
0.0
176
     1
173
     0
176
     1
  0
VISUALSTYLE
  5
35
102
{ACAD_REACTORS
330
2A
102
}
330
2A
100
AcDbVisualStyle
  2
Dim
 70
    11
177
     2
291
     1
 71
     2
176
     1
 72
     2
176
     1
 73
     0
176
     1
 90
        0
176
     1
 40
-0.6
176
     1
 41
-30.0
176
     1
 62
     5
 63
     7
421
 16777215
176
     1
 74
     1
176
     1
 91
        4
176
     1
 64
     7
176
     1
 65
   257
176
     1
 75
     1
176
     1
175
     1
176
     1
 42
1.0
176
     1
 92
        8
176
     1
 66
     7
176
     1
 43
1.0
176
     1
 76
     1
176
     1
 77
     6
176
     1
 78
     2
176
     1
 67
     7
176
     1
 79
     5
176
     1
170
     0
176
     1
171
     0
176
     1
290
     0
176
     1
 93
        1
176
     1
 44
-50.0
176
     1
173
     0
176
     1
  0
VISUALSTYLE
  5
39
102
{ACAD_REACTORS
330
2A
102
}
330
2A
100
AcDbVisualStyle
  2
Facepattern
 70
    15
177
     2
291
     1
 71
     2
176
     1
 72
     2
176
     1
 73
     0
176
     1
 90
        0
176
     1
 40
-0.6
176
     1
 41
-30.0
176
     1
 62
     5
 63
     7
421
 16777215
176
     1
 74
     1
176
     1
 91
        4
176
     1
 64
     7
176
     1
 65
   257
176
     1
 75
     1
176
     1
175
     1
176
     1
 42
1.0
176
     1
 92
        8
176
     1
 66
     7
176
     1
 43
1.0
176
     1
 76
     1
176
     1
 77
     6
176
     1
 78
     2
176
     1
 67
     7
176
     1
 79
     5
176
     1
170
     0
176
     1
171
     0
176
     1
290
     0
176
     1
 93
        1
176
     1
 44
0.0
176
     1
173
     0
176
     1
  0
VISUALSTYLE
  5
2B
102
{ACAD_REACTORS
330
2A
102
}
330
2A
100
AcDbVisualStyle
  2
Flat
 70
     0
177
     2
291
     1
 71
     2
176
     1
 72
     1
176
     1
 73
     1
176
     1
 90
        2
176
     1
 40
-0.6
176
     1
 41
30.0
176
     1
 62
     5
 63
     7
421
 16777215
176
     1
 74
     0
176
     1
 91
        4
176
     1
 64
     7
176
     1
 65
   257
176
     1
 75
     1
176
     1
175
     1
176
     1
 42
1.0
176
     1
 92
        8
176
     1
 66
     7
176
     1
 43
1.0
176
     1
 76
     1
176
     1
 77
     6
176
     1
 78
     2
176
     1
 67
     7
176
     1
 79
     5
176
     1
170
     0
176
     1
171
     0
176
     1
290
     0
176
     1
 93
       13
176
     1
 44
0.0
176
     1
173
     0
176
     1
  0
VISUALSTYLE
  5
2C
102
{ACAD_REACTORS
330
2A
102
}
330
2A
100
AcDbVisualStyle
  2
FlatWithEdges
 70
     1
177
     2
291
     1
 71
     2
176
     1
 72
     1
176
     1
 73
     1
176
     1
 90
        2
176
     1
 40
-0.6
176
     1
 41
30.0
176
     1
 62
     5
 63
     7
421
 16777215
176
     1
 74
     1
176
     1
 91
        4
176
     1
 64
     7
176
     1
 65
   257
176
     1
 75
     1
176
     1
175
     1
176
     1
 42
1.0
176
     1
 92
        0
176
     1
 66
   257
176
     1
 43
1.0
176
     1
 76
     1
176
     1
 77
     6
176
     1
 78
     2
176
     1
 67
     7
176
     1
 79
     5
176
     1
170
     0
176
     1
171
     0
176
     1
290
     0
176
     1
 93
       13
176
     1
 44
0.0
176
     1
173
     0
176
     1
  0
VISUALSTYLE
  5
2D
102
{ACAD_REACTORS
330
2A
102
}
330
2A
100
AcDbVisualStyle
  2
Gouraud
 70
     2
177
     2
291
     1
 71
     2
176
     1
 72
     2
176
     1
 73
     1
176
     1
 90
        2
176
     1
 40
-0.6
176
     1
 41
30.0
176
     1
 62
     5
 63
     7
421
 16777215
176
     1
 74
     0
176
     1
 91
        4
176
     1
 64
     7
176
     1
 65
   257
176
     1
 75
     1
176
     1
175
     1
176
     1
 42
1.0
176
     1
 92
        0
176
     1
 66
     7
176
     1
 43
1.0
176
     1
 76
     1
176
     1
 77
     6
176
     1
 78
     2
176
     1
 67
     7
176
     1
 79
     5
176
     1
170
     0
176
     1
171
     0
176
     1
290
     0
176
     1
 93
       13
176
     1
 44
0.0
176
     1
173
     0
176
     1
  0
VISUALSTYLE
  5
2E
102
{ACAD_REACTORS
330
2A
102
}
330
2A
100
AcDbVisualStyle
  2
GouraudWithEdges
 70
     3
177
     2
291
     1
 71
     2
176
     1
 72
     2
176
     1
 73
     1
176
     1
 90
        2
176
     1
 40
-0.6
176
     1
 41
30.0
176
     1
 62
     5
 63
     7
421
 16777215
176
     1
 74
     1
176
     1
 91
        4
176
     1
 64
     7
176
     1
 65
   257
176
     1
 75
     1
176
     1
175
     1
176
     1
 42
1.0
176
     1
 92
        0
176
     1
 66
   257
176
     1
 43
1.0
176
     1
 76
     1
176
     1
 77
     6
176
     1
 78
     2
176
     1
 67
     7
176
     1
 79
     5
176
     1
170
     0
176
     1
171
     0
176
     1
290
     0
176
     1
 93
       13
176
     1
 44
0.0
176
     1
173
     0
176
     1
  0
VISUALSTYLE
  5
38
102
{ACAD_REACTORS
330
2A
102
}
330
2A
100
AcDbVisualStyle
  2
Linepattern
 70
    14
177
     2
291
     1
 71
     2
176
     1
 72
     2
176
     1
 73
     0
176
     1
 90
        0
176
     1
 40
-0.6
176
     1
 41
-30.0
176
     1
 62
     5
 63
     7
421
 16777215
176
     1
 74
     1
176
     1
 91
        4
176
     1
 64
     7
176
     1
 65
   257
176
     1
 75
     7
176
     1
175
     7
176
     1
 42
1.0
176
     1
 92
        8
176
     1
 66
     7
176
     1
 43
1.0
176
     1
 76
     1
176
     1
 77
     6
176
     1
 78
     2
176
     1
 67
     7
176
     1
 79
     5
176
     1
170
     0
176
     1
171
     0
176
     1
290
     0
176
     1
 93
        1
176
     1
 44
0.0
176
     1
173
     0
176
     1
  0
VISUALSTYLE
  5
33
102
{ACAD_REACTORS
330
2A
102
}
330
2A
100
AcDbVisualStyle
  2
Realistic
 70
     8
177
     2
291
     0
 71
     2
176
     1
 72
     2
176
     1
 73
     0
176
     1
 90
        0
176
     1
 40
-0.6
176
     1
 41
-30.0
176
     1
 62
     5
 63
     7
421
 16777215
176
     1
 74
     1
176
     1
 91
        0
176
     1
 64
     7
176
     1
 65
   257
176
     1
 75
     1
176
     1
175
     1
176
     1
 42
1.0
176
     1
 92
        8
176
     1
 66
     8
424
  7895160
176
     1
 43
1.0
176
     1
 76
     1
176
     1
 77
     6
176
     1
 78
     2
176
     1
 67
     7
176
     1
 79
     5
176
     1
170
     0
176
     1
171
     0
176
     1
290
     0
176
     1
 93
       13
176
     1
 44
0.0
176
     1
173
     0
176
     1
  0
VISUALSTYLE
  5
37
102
{ACAD_REACTORS
330
2A
102
}
330
2A
100
AcDbVisualStyle
  2
Thicken
 70
    13
177
     2
291
     1
 71
     2
176
     1
 72
     2
176
     1
 73
     0
176
     1
 90
        0
176
     1
 40
-0.6
176
     1
 41
-30.0
176
     1
 62
     5
 63
     7
421
 16777215
176
     1
 74
     1
176
     1
 91
        4
176
     1
 64
     7
176
     1
 65
   257
176
     1
 75
     1
176
     1
175
     1
176
     1
 42
1.0
176
     1
 92
       12
176
     1
 66
     7
176
     1
 43
1.0
176
     1
 76
     1
176
     1
 77
     6
176
     1
 78
     2
176
     1
 67
     7
176
     1
 79
     5
176
     1
170
     0
176
     1
171
     0
176
     1
290
     0
176
     1
 93
        1
176
     1
 44
0.0
176
     1
173
     0
176
     1
  0
ENDSEC
  0
EOF
